<svg width="100" height="100" viewBox="0 0 100 100" fill="none" xmlns="http://www.w3.org/2000/svg">
<path fill-rule="evenodd" clip-rule="evenodd" d="M62.5363 15.9259L59.5495 21.4358C62.5496 22.9803 64.9479 25.1314 66.7428 27.8937C68.5374 30.6581 69.4353 33.6785 69.4353 36.9597H30.524C30.524 33.6777 31.4218 30.6575 33.2166 27.8937C35.0113 25.1314 37.4235 22.9803 40.4523 21.4358L37.4653 15.9259C37.2685 15.5611 37.3382 15.2823 37.6752 15.0847C38.0392 14.9158 38.3195 15.001 38.5164 15.3364L41.5451 20.8904C44.209 19.7123 47.0279 19.1219 50.0008 19.1219C52.9731 19.1219 55.7917 19.7121 58.4567 20.8904L61.4852 15.3364C61.6812 15.001 61.9615 14.9151 62.3264 15.0847C62.6626 15.2814 62.7324 15.5611 62.5363 15.9259ZM41.1237 29.9349C41.5722 29.9349 41.958 29.7738 42.281 29.45C42.6025 29.1278 42.7642 28.7427 42.7651 28.2935C42.7651 27.8451 42.6032 27.4608 42.281 27.137C41.958 26.8148 41.5722 26.6537 41.1237 26.6537C40.6753 26.6537 40.2965 26.8148 39.9881 27.137C39.6798 27.4601 39.5256 27.8451 39.5256 28.2935C39.5256 28.7435 39.6798 29.1278 39.9881 29.45C40.2965 29.7738 40.6744 29.9349 41.1237 29.9349ZM58.8764 29.9349C59.324 29.9349 59.7029 29.7738 60.0118 29.45C60.3203 29.1278 60.4743 28.7427 60.4743 28.2935C60.4743 27.8451 60.3204 27.4608 60.0118 27.137C59.7027 26.8148 59.3248 26.6537 58.8764 26.6537C58.4269 26.6537 58.0412 26.8148 57.7189 27.137C57.396 27.4601 57.2349 27.8451 57.2349 28.2935C57.2349 28.7435 57.396 29.1278 57.7189 29.45C58.0412 29.7738 58.4269 29.9349 58.8764 29.9349ZM21.6467 38.9359C22.4879 38.0947 23.5112 37.6741 24.7173 37.6741C25.8954 37.6741 26.9055 38.0947 27.7468 38.9359C28.5881 39.7771 29.0087 40.7864 29.0087 41.9646V60.0534C29.0087 61.2611 28.5943 62.2836 27.7678 63.1248C26.9396 63.9661 25.9225 64.3867 24.7173 64.3867C23.5112 64.3867 22.4879 63.966 21.6467 63.1248C20.8054 62.2835 20.3848 61.2611 20.3848 60.0534V41.9646C20.3848 40.7865 20.8055 39.7771 21.6467 38.9359ZM30.6911 66.4897C30.6911 67.781 31.1395 68.8741 32.0365 69.7711C32.9343 70.6681 34.0274 71.1166 35.3178 71.1166H38.4309L38.4736 80.6669C38.4736 81.8728 38.8942 82.8969 39.7354 83.7382C40.5766 84.5796 41.5867 85.0002 42.7641 85.0002C43.9694 85.0002 44.9934 84.5796 45.8347 83.7382C46.676 82.8969 47.0966 81.873 47.0966 80.6669V71.1174H52.9017V80.6669C52.9017 81.8728 53.3222 82.8969 54.1635 83.7382C55.0048 84.5796 56.0279 85.0002 57.2341 85.0002C58.4394 85.0002 59.4634 84.5796 60.3047 83.7382C61.146 82.8969 61.5665 81.873 61.5665 80.6669V71.1174H64.7217C65.9835 71.1174 67.0625 70.6689 67.9611 69.7719C68.858 68.8749 69.3067 67.7818 69.3067 66.4906V38.4727H30.6911V66.4897ZM72.2538 38.915C73.0951 38.0885 74.1044 37.6741 75.2827 37.6741C76.488 37.6741 77.512 38.0885 78.3533 38.915C79.1946 39.743 79.6151 40.76 79.6151 41.9646V60.0534C79.6151 61.2611 79.1946 62.2835 78.3533 63.1248C77.512 63.9661 76.488 64.3867 75.2827 64.3867C74.1052 64.3867 73.0951 63.9661 72.2538 63.1248C71.4125 62.2835 70.992 61.2611 70.992 60.0534V41.9646C70.992 40.7602 71.4126 39.743 72.2538 38.915Z" fill="black"/>
</svg>
