<svg width="100" height="100" viewBox="0 0 100 100" fill="none" xmlns="http://www.w3.org/2000/svg">
<path fill-rule="evenodd" clip-rule="evenodd" d="M23 15C18.5817 15 15 18.5817 15 23V77C15 81.4183 18.5817 85 23 85H77C81.4183 85 85 81.4183 85 77V23C85 18.5817 81.4183 15 77 15H23ZM27.5061 62.2497H32.5306V46.0786H27.5061V62.2497ZM32.1356 39.3707C31.6707 38.9044 31.0268 38.6634 30.2039 38.6475C29.3775 38.6634 28.7238 38.9044 28.243 39.3707C27.7621 39.837 27.5165 40.4334 27.5061 41.1599C27.5158 41.8719 27.7545 42.4641 28.2222 42.9365C28.6898 43.4089 29.3282 43.654 30.1373 43.672C30.9942 43.6541 31.6617 43.4089 32.1398 42.9365C32.6178 42.4641 32.8607 41.8719 32.8683 41.1599C32.8447 40.4334 32.6005 39.837 32.1356 39.3707ZM53.1996 42.6808C51.3841 40.5263 49.1427 39.4071 45.6839 39.3231C42.3452 39.391 40.097 40.5089 38.1476 42.6766C36.1982 44.8443 35.202 47.6539 35.1589 51.1056C35.1846 54.4128 36.1157 57.1346 37.952 59.2712C39.7883 61.4078 41.9797 62.5132 45.3177 62.5875C48.6606 62.5586 50.9255 61.5132 52.904 59.4513C54.8826 57.3894 55.8955 54.4846 55.9428 50.737C55.9295 47.5206 55.0151 44.8352 53.1996 42.6808ZM41.9524 45.5239C42.8954 44.1094 43.8421 43.3795 45.584 43.3342C47.3377 43.3942 48.2775 44.145 49.195 45.5867C50.1124 47.0283 50.5743 48.801 50.5805 50.9046C50.5701 53.1443 50.1 54.9715 49.17 56.3862C48.24 57.801 47.3086 58.531 45.584 58.5764C43.8712 58.5394 42.9329 57.8345 41.9773 56.4616C41.0218 55.0887 40.5364 53.2699 40.5211 51.0051C40.5322 48.7654 41.0093 46.9383 41.9524 45.5239ZM61.0323 56.6423L57.5672 59.9284C57.5672 59.9284 59.0921 61.425 60.2091 61.71C60.5333 61.7927 60.8658 61.8974 61.2066 62.0047C62.0399 62.2671 62.9228 62.5452 63.8554 62.5558C67.0152 62.4981 69.3325 61.7907 70.8073 60.4335C72.2821 59.0762 73.0114 57.4154 72.9953 55.451C73.0025 53.8672 72.5422 52.5289 71.6143 51.4359C70.6865 50.343 69.2473 49.4326 67.297 48.7047C65.7462 48.1775 64.6167 47.688 63.9086 47.2363C63.2005 46.7846 62.8516 46.2112 62.8619 45.5162C62.8605 44.926 63.1473 44.4197 63.7223 43.9973C64.2974 43.5748 65.1697 43.3538 66.339 43.3342C67.4647 43.3517 69.2052 44.4994 69.2052 44.4994L72.1198 41.9197C72.1198 41.9197 70.6942 40.2241 69.7651 40.0275C69.4759 39.9663 69.1682 39.8758 68.8423 39.78C68.1213 39.5679 67.3105 39.3294 66.41 39.3231C63.6779 39.3608 61.5706 39.9888 60.0881 41.2071C58.6056 42.4253 57.8554 44.0072 57.8375 45.9525C57.8598 47.5873 58.4148 48.9495 59.5025 50.0389C60.5902 51.1283 62.0767 52.0037 63.9618 52.6652C65.3862 53.1197 66.4136 53.5868 67.0441 54.0665C67.6745 54.5461 67.9834 55.1307 67.9708 55.8202C67.9679 56.5683 67.6456 57.1613 67.0041 57.599C66.3626 58.0367 65.4195 58.2605 64.1747 58.2703C63.0512 58.2556 61.0323 56.6423 61.0323 56.6423Z" fill="black"/>
</svg>
