<svg width="100" height="100" viewBox="0 0 100 100" fill="none" xmlns="http://www.w3.org/2000/svg">
<path fill-rule="evenodd" clip-rule="evenodd" d="M47.1309 47.7047V20.9156C47.1309 20.6307 47.34 20.3888 47.6221 20.3478L84.3344 15.006C84.4999 14.9821 84.6668 15.0307 84.7925 15.1398C84.9185 15.2488 84.9908 15.4071 84.9908 15.5738V47.7047C84.9908 48.0216 84.734 48.2785 84.4171 48.2785H47.7047C47.3877 48.2785 47.1309 48.0216 47.1309 47.7047ZM43.4923 79.109C43.3872 79.2008 43.2529 79.2504 43.115 79.2504C43.089 79.2504 43.0629 79.2485 43.0369 79.2453L15.5182 75.4736C15.2343 75.4346 15.0225 75.192 15.0225 74.9051L15.0211 52.2951C15.0211 52.1429 15.0815 51.997 15.1891 51.8893C15.2968 51.7817 15.4427 51.7213 15.5949 51.7213H43.115C43.4319 51.7213 43.6887 51.9781 43.6887 52.2951V78.6766C43.6887 78.8423 43.6171 79 43.4923 79.109ZM15.5988 48.2785H43.115C43.4319 48.2785 43.6888 48.0216 43.6888 47.7047V21.5825C43.6888 21.4168 43.6171 21.2594 43.4925 21.1504C43.3679 21.0413 43.2031 20.9913 43.0379 21.014L15.4967 24.7541C15.2118 24.7929 14.9998 25.0359 15 25.3233L15.025 47.7051C15.0255 48.0219 15.2823 48.2785 15.5988 48.2785ZM84.7934 84.8593C84.6883 84.9506 84.5545 85 84.417 85C84.3904 85 84.3638 84.9982 84.337 84.9945L47.6246 79.8296C47.3416 79.7897 47.1309 79.5473 47.1309 79.2614V52.2951C47.1309 51.9781 47.3877 51.7213 47.7047 51.7213H84.4262C84.5784 51.7213 84.7244 51.7817 84.832 51.8893C84.9396 51.997 85 52.1429 85 52.2951L84.9908 84.4262C84.9908 84.5924 84.9188 84.7503 84.7934 84.8593Z" fill="black"/>
</svg>
