<svg width="500" height="500" viewBox="0 0 500 500" fill="none" xmlns="http://www.w3.org/2000/svg">
<rect width="500" height="500" fill="white"/>
<g clip-path="url(#clip0_108_400)">
<path d="M355.829 179.469C374.529 207.53 381.318 241.87 374.704 274.936C368.089 308.002 348.612 337.087 320.557 355.795C292.501 374.503 258.164 381.302 225.096 374.697C192.028 368.092 162.938 348.623 144.221 320.573L116.048 339.334C139.739 374.851 176.567 399.505 218.432 407.873C260.297 416.242 303.772 407.64 339.296 383.959C374.82 360.279 399.485 323.458 407.865 281.595C416.246 239.733 407.657 196.255 383.987 160.724L355.829 179.469Z" fill="#69B3E7"/>
<path d="M122.471 249.436C122.47 222.083 131.289 195.459 147.618 173.515C163.947 151.572 186.916 135.478 213.116 127.622C239.317 119.767 267.351 120.568 293.06 129.908C318.769 139.248 340.781 156.628 355.829 179.469L383.987 160.708C372.259 143.112 357.181 127.998 339.612 116.229C322.043 104.461 302.328 96.2686 281.593 92.1201C260.858 87.9716 239.508 87.9481 218.764 92.0512C198.02 96.1542 178.287 104.303 160.692 116.033C143.098 127.763 127.986 142.844 116.22 160.414C104.454 177.985 96.2644 197.701 92.1188 218.437C87.9731 239.172 87.9526 260.522 92.0584 281.265C96.1643 302.009 104.316 321.741 116.048 339.334L144.221 320.573C130.008 299.575 122.431 274.792 122.471 249.436Z" fill="#0067B9"/>
<path d="M173.091 300.467H320.791C322.221 300.467 323.593 299.899 324.605 298.887C325.617 297.876 326.185 296.504 326.185 295.073V198.452L173.091 300.467Z" fill="#333E48"/>
<path d="M249.638 249.436L173.091 198.452V300.515L249.638 249.436Z" fill="#FFC107"/>
</g>
<defs>
<clipPath id="clip0_108_400">
<rect width="322" height="322" fill="white" transform="translate(89 89)"/>
</clipPath>
</defs>
</svg>
