<svg width="500" height="500" viewBox="0 0 500 500" fill="none" xmlns="http://www.w3.org/2000/svg">
<rect width="500" height="500" fill="#2970B8"/>
<g clip-path="url(#clip0_108_395)">
<path d="M249.113 134.533H351.753L269.001 278.472C264.028 287.002 266.87 298.02 275.748 303.351C284.271 308.326 295.281 305.128 300.252 296.598L393.654 134.533H394.725C409.28 134.533 421 146.973 421 162.255V337.469C421 352.752 409.28 365.546 394.725 365.546H392.589L331.86 267.81L311.617 303.35L349.968 365.546H249.113V286.291L286.757 221.607C291.729 212.722 288.533 201.705 280.01 196.729C271.131 191.754 260.122 194.597 255.15 203.482L249.113 213.433V134.533ZM104.925 134.533H105.281L166.365 232.269L186.963 196.729L148.253 134.533H249.113V213.433L211.823 278.472C206.851 287.002 209.692 298.02 218.57 303.351C227.094 308.326 238.458 305.128 243.43 296.598L249.113 286.291V365.546H146.477L229.579 221.608C234.552 212.723 231.71 201.705 222.832 196.73C214.309 191.754 203.299 194.597 197.972 203.482L104.57 365.546C90.3645 365.191 79 352.751 79 337.469V162.255C79.0004 146.972 90.7197 134.533 104.925 134.533Z" fill="white"/>
<path d="M104.925 134.533H105.281L166.365 232.269L186.963 196.729L148.253 134.533H351.753L269.001 278.472C264.028 287.002 266.87 298.02 275.748 303.351C284.271 308.327 295.281 305.128 300.252 296.598L393.654 134.533H394.725C409.28 134.533 421 146.973 421 162.255V337.469C421 352.752 409.28 365.546 394.725 365.546H392.589L331.86 267.81L311.617 303.35L349.968 365.546H146.477L229.58 221.607C234.552 212.722 231.711 201.704 222.832 196.729C214.309 191.753 203.3 194.596 197.973 203.481L104.57 365.546C90.3645 365.191 79 352.751 79 337.469V162.255C79.0004 146.972 90.7197 134.533 104.925 134.533ZM255.15 203.482C260.122 194.596 271.132 191.753 280.01 196.729C288.533 201.705 291.73 212.722 286.758 221.607L243.431 296.598C238.458 305.128 227.094 308.327 218.571 303.351C209.692 298.02 206.851 287.002 211.823 278.472L255.15 203.482Z" stroke="white" stroke-width="0.216" stroke-miterlimit="10"/>
</g>
<defs>
<clipPath id="clip0_108_395">
<rect width="342" height="232" fill="white" transform="translate(79 134)"/>
</clipPath>
</defs>
</svg>
