<svg width="500" height="500" viewBox="0 0 500 500" fill="none" xmlns="http://www.w3.org/2000/svg">
<rect width="500" height="500" fill="white"/>
<path fill-rule="evenodd" clip-rule="evenodd" d="M157.855 192.31C162.503 147.783 202.208 113 250.5 113C298.792 113 338.496 147.783 343.145 192.31C387.801 198.796 422 235.299 422 279.357C422 327.998 380.318 367.429 328.9 367.429C322.801 367.429 316.84 366.874 311.07 365.815C294.788 379.022 273.629 387 250.5 387C227.371 387 206.212 379.022 189.93 365.815C184.16 366.874 178.199 367.429 172.1 367.429C120.682 367.429 79 327.998 79 279.357C79 235.299 113.199 198.796 157.855 192.31Z" fill="#3C81F6"/>
<path d="M216.795 239.62C211.054 233.889 201.746 233.889 196.005 239.62C190.265 245.353 190.265 254.647 196.005 260.38L216.795 239.62ZM314.795 260.38C320.535 254.647 320.535 245.353 314.795 239.62C309.054 233.889 299.746 233.889 294.005 239.62L314.795 260.38ZM255.4 298.929L245.005 309.308C250.746 315.04 260.054 315.04 265.795 309.308L255.4 298.929ZM196.005 260.38L245.005 309.308L265.795 288.549L216.795 239.62L196.005 260.38ZM265.795 309.308L314.795 260.38L294.005 239.62L245.005 288.549L265.795 309.308Z" fill="white"/>
</svg>
