<svg xmlns="http://www.w3.org/2000/svg" version="1.1" xmlns:xlink="http://www.w3.org/1999/xlink" xmlns:svgjs="http://svgjs.com/svgjs" width="256" height="256"><svg width="256" height="256" viewBox="0 0 256 256" fill="none" xmlns="http://www.w3.org/2000/svg">
<rect width="256" height="256" rx="128" fill="black"></rect>
<g clip-path="url(#clip0_10_1120)">
<path d="M127.28 48.2111C107.04 58.3241 66.224 78.55 64.88 78.55V158.1L128.96 204.683L192.8 152.844V78.55L127.28 48.2111Z" fill="#55ACEE" fill-opacity="0.24"></path>
<path fill-rule="evenodd" clip-rule="evenodd" d="M199.968 110.786C199.968 107.371 199.965 103.956 199.962 100.541V100.528C199.956 93.703 199.949 86.8789 199.968 80.0528C199.968 76.4227 198.462 73.9723 195.101 72.4159C173.893 62.5874 152.712 52.727 131.559 42.8349C130.46 42.2813 129.244 41.9926 128.009 41.9926C126.775 41.9926 125.558 42.2813 124.459 42.8349C103.429 52.6665 82.382 62.4573 61.3182 72.2072C57.6346 73.9043 56 76.4318 56 80.4249C56.0386 90.4607 56.0367 100.496 56.0348 110.533C56.0331 119.628 56.0314 128.725 56.0599 137.822C56.0399 140.983 56.2507 144.142 56.6907 147.274C58.4358 158.84 63.7585 168.46 73.345 175.53C89.7062 187.6 106.101 199.623 122.53 211.6C126.9 214.799 129.151 214.776 133.512 211.6C145.032 203.166 156.543 194.73 168.045 186.293C169.659 185.106 171.29 183.94 172.922 182.773L172.922 182.773C177.105 179.782 181.288 176.79 185.174 173.461C195.465 164.653 199.784 153.041 199.931 139.823C200.019 132.973 200.001 126.124 199.983 119.274C199.975 116.445 199.968 113.616 199.968 110.786ZM185.846 142.872C185.68 151.553 181.891 159.017 174.712 164.344C173.637 165.142 172.562 165.94 171.485 166.736C167.736 156.449 158.248 148.613 146.927 147.926C135.108 147.15 123.252 147.066 111.423 147.676C98.2576 148.392 88.6298 155.528 84.7413 166.922C83.9481 166.345 83.1546 165.769 82.3606 165.193C74.533 159.512 70.3889 151.78 70.1219 142.35C69.8773 132.975 69.9076 123.594 69.9379 114.214C69.9504 110.352 69.9628 106.49 69.9561 102.628C69.9561 101.088 69.9583 99.5481 69.9605 98.0079V98.0075V98.0075C69.9667 93.6062 69.9728 89.2037 69.9285 84.8037C69.9285 83.6648 70.3061 83.1339 71.3467 82.6529C89.8474 74.0828 108.342 65.4975 126.83 56.8971C127.579 56.5977 128.416 56.5977 129.165 56.8971C147.635 65.4189 166.087 73.9829 184.52 82.5894L184.618 82.635C185.417 83.0078 186.081 83.317 186.076 84.477C186.05 91.0016 186.055 97.5267 186.061 104.052C186.071 116.994 186.082 129.936 185.846 142.872ZM142.506 133.569C148.853 127.311 153.286 119.435 155.304 110.832C157.371 101.81 156.854 93.1829 150.162 85.8104C146.175 81.4349 140.942 78.3341 135.138 76.9094C129.335 75.4846 123.229 75.8016 117.612 77.8192C106.478 81.8664 99.7424 91.3527 99.7424 102.91C99.7424 113.376 105.156 125.388 113.758 133.775C122.359 142.161 134.045 142.092 142.506 133.569Z" fill="#55ACEE"></path>
</g>
<defs>
<clipPath id="SvgjsClipPath1000">
<rect width="144" height="172" fill="white" transform="translate(56 42)"></rect>
</clipPath>
</defs>
</svg><style>@media (prefers-color-scheme: light) { :root { filter: none; } }
</style></svg>