<?xml version="1.0" standalone="no"?>
<!DOCTYPE svg PUBLIC "-//W3C//DTD SVG 20010904//EN"
 "http://www.w3.org/TR/2001/REC-SVG-20010904/DTD/svg10.dtd">
<svg version="1.0" xmlns="http://www.w3.org/2000/svg"
 width="256.000000pt" height="256.000000pt" viewBox="0 0 256.000000 256.000000"
 preserveAspectRatio="xMidYMid meet">
<metadata>
Created by potrace 1.14, written by Peter Selinger 2001-2017
</metadata>
<g transform="translate(0.000000,256.000000) scale(0.100000,-0.100000)"
fill="#000000" stroke="none">
<path d="M900 1291 l0 -541 95 0 95 0 0 195 0 195 103 0 102 0 103 -195 103
-195 109 0 108 0 -115 212 c-74 135 -112 213 -104 216 30 10 99 72 128 115 89
132 57 361 -64 453 -90 69 -130 77 -410 82 l-253 4 0 -541z m490 347 c61 -32
83 -66 88 -137 6 -83 -22 -142 -82 -170 -36 -18 -61 -21 -174 -21 l-132 0 0
175 0 175 128 0 c113 0 133 -3 172 -22z"/>
</g>
</svg>
