<svg width="500" height="500" viewBox="0 0 500 500" fill="none" xmlns="http://www.w3.org/2000/svg">
<rect width="500" height="500" fill="#192E45"/>
<path d="M61 248.393C61 351.956 144.978 435.787 248.393 435.787C351.809 435.787 435.787 351.956 435.787 248.393C435.787 144.831 351.956 61 248.393 61C144.831 61 61 144.831 61 248.393Z" fill="#192E45"/>
<path d="M86.073 225.989L100.321 206.111L99.4295 234.743L103.435 213.23C115.303 237.27 144.386 270.499 170.942 288.307C173.762 290.236 176.137 292.312 177.767 294.387C181.18 295.724 184.592 296.468 188.005 297.061C189.787 297.355 191.716 297.501 193.498 297.653C195.276 297.8 197.205 297.8 198.982 297.8C200.769 297.8 202.546 297.653 204.329 297.506C206.106 297.359 207.888 297.061 209.665 296.762C211.448 296.468 213.23 296.175 214.86 295.577C216.642 295.132 218.273 294.686 220.055 294.094C221.685 293.648 223.467 292.904 225.098 292.312C226.733 291.572 228.364 290.975 229.994 290.089C231.629 289.198 233.26 288.453 234.743 287.562C236.378 286.823 237.862 285.785 239.492 284.894C241.123 284.003 242.606 282.965 244.242 282.074C245.872 281.183 247.356 280.145 248.844 279.254C250.323 278.216 251.953 277.325 253.436 276.287C254.925 275.249 256.555 274.358 258.186 273.32L259.669 272.428L260.413 272.874L271.097 279.998L260.262 277.178C259.224 278.367 258.186 279.552 257.001 280.737C255.664 282.074 254.181 283.41 252.844 284.747C251.361 285.932 249.877 287.269 248.242 288.307C246.611 289.491 245.128 290.534 243.346 291.572C240.085 293.648 236.525 295.43 232.819 296.909C231.037 297.653 229.108 298.397 227.326 298.99C225.397 299.582 223.614 300.175 221.685 300.62C219.756 301.066 217.827 301.511 215.903 301.81C213.974 302.104 212.045 302.251 210.116 302.549C206.258 302.696 202.253 302.696 198.394 302.109C196.465 301.81 194.536 301.511 192.607 301.066C190.678 300.625 188.896 300.028 187.119 299.435C183.962 298.252 180.93 296.759 178.066 294.98C178.066 294.98 167.828 296.468 171.985 304.185C176.137 311.896 182.365 311.157 179.403 320.205C177.322 325.101 174.36 329.85 171.094 334.305C164.269 343.5 153.585 351.662 154.623 356.558C203.144 416.349 312.493 408.041 354.037 354.629C353.439 346.913 341.277 343.202 332.817 324.361C335.192 325.101 338.751 326.144 338.751 325.992C338.751 325.845 328.665 309.521 328.22 307.891L334.746 308.336C334.746 308.336 326.144 297.653 325.845 296.615L334.599 295.43C334.599 295.43 323.617 282.818 323.47 281.78L334.599 283.557L322.432 268.869H328.22L321.394 258.93C320.205 258.484 319.02 258.186 317.83 257.892L313.379 256.555C296.762 251.365 281.036 246.616 265.902 237.118C244.687 223.913 225.695 207.741 211.448 195.129L182.815 181.18C155.363 179.104 129.545 179.848 113.819 182.962L123.91 165.752L108.478 184.299C107.44 184.005 107.146 183.407 107.146 183.407L108.184 160.557L103.288 181.18C101.804 180.44 100.022 180.142 98.2447 180.142C96.6253 180.137 95.0209 180.452 93.5237 181.069C92.0265 181.686 90.6662 182.593 89.5209 183.738C88.3756 184.883 87.4679 186.243 86.8501 187.74C86.2324 189.237 85.9167 190.841 85.9212 192.46C85.9212 198.693 90.5235 203.888 96.6045 204.627L86.0681 225.994L86.073 225.989Z" fill="#D0933A"/>
<path d="M103.288 180.886C101.733 180.244 100.073 179.892 98.3916 179.848C96.773 179.844 95.1695 180.159 93.6732 180.776C92.177 181.393 90.8174 182.3 89.6727 183.444C88.5279 184.589 87.6206 185.948 87.0029 187.444C86.3851 188.94 86.0691 190.543 86.073 192.162C86.073 198.096 90.3815 203.139 96.0121 204.329H96.3107C100.022 203.139 107.44 193.2 106.25 186.967C105.784 184.725 104.766 182.635 103.288 180.886V180.886Z" fill="#FFCC86"/>
<path d="M211.447 165.008C209.225 158.927 209.817 151.064 212.931 143.641C217.386 133.408 225.842 126.578 233.852 126.578C235.487 126.578 236.971 126.877 238.454 127.47C243.057 123.318 248.393 119.905 254.328 117.53C287.122 104.473 335.045 127.763 347.358 159.965C353.292 175.544 351.515 192.607 346.467 208.187C342.315 220.946 327.177 239.345 332.817 253.29C330.594 252.697 283.709 238.161 270.651 229.847C249.73 216.789 230.885 200.764 216.794 188.304L216.344 187.858L168.719 165.307C168.157 165.041 167.611 164.744 167.084 164.415C173.909 164.415 199.878 167.529 211.447 165.008" fill="#FDD321"/>
<path d="M225.543 170.35C224.364 170.366 223.197 170.114 222.131 169.61C219.756 168.572 217.979 166.643 216.794 163.671C214.713 158.628 215.306 151.656 218.126 145.125C221.837 136.669 228.809 130.735 235.189 130.735C236.378 130.735 237.563 131.029 238.748 131.475C241.867 132.811 244.09 135.93 244.834 140.381C245.725 145.13 244.981 150.613 242.606 155.808C238.9 164.269 231.776 170.35 225.543 170.35V170.35Z" fill="white"/>
<path d="M235.042 133.11C235.933 133.11 236.819 133.257 237.71 133.702C240.085 134.74 241.867 137.413 242.459 140.973C243.199 145.277 242.606 150.325 240.383 155.069C237.118 162.633 230.738 168.127 225.396 168.127C224.505 168.127 223.614 167.98 222.875 167.681C220.647 166.79 219.462 164.714 218.87 163.079C217.088 158.628 217.533 152.102 220.055 146.168C223.467 138.598 229.7 133.11 235.037 133.11M235.037 128.654C227.918 128.654 220.055 135.186 215.903 144.532C212.784 151.509 212.339 159.074 214.566 164.861C215.903 168.274 218.126 170.648 220.946 171.985C222.283 172.572 223.766 172.871 225.396 172.871C232.52 172.871 240.379 166.345 244.388 156.998C246.91 151.358 247.654 145.424 246.763 140.229C245.872 135.039 243.199 131.328 239.345 129.697C238.156 128.953 236.672 128.659 235.037 128.659V128.654Z" fill="#192E45"/>
</svg>
