<svg width="500" height="500" viewBox="0 0 500 500" fill="none" xmlns="http://www.w3.org/2000/svg">
<rect width="500" height="500" fill="white"/>
<path d="M252.754 110H249.542C227.396 110 206.158 118.797 190.499 134.456C174.84 150.116 166.042 171.354 166.042 193.499V215.906C166.042 217.703 166.756 219.425 168.026 220.695C169.296 221.965 171.019 222.679 172.815 222.679H190.834C192.63 222.679 194.353 221.965 195.623 220.695C196.893 219.425 197.607 217.703 197.607 215.906V192.12C197.607 178.254 203.115 164.955 212.92 155.15C222.725 145.345 236.024 139.837 249.89 139.837H252.412C266.279 139.837 279.577 145.345 289.382 155.15C299.187 164.955 304.696 178.254 304.696 192.12V215.906C304.696 217.703 305.409 219.425 306.679 220.695C307.949 221.965 309.672 222.679 311.468 222.679H329.481C331.277 222.679 333 221.965 334.27 220.695C335.54 219.425 336.253 217.703 336.253 215.906V193.499C336.253 171.354 327.456 150.116 311.797 134.456C296.138 118.797 274.899 110 252.754 110Z" fill="url(#paint0_linear_107_151)"/>
<path d="M312.197 389.954H288.785C284.975 389.959 281.238 388.907 277.991 386.915C274.743 384.922 272.113 382.067 270.392 378.668H227.456C225.736 382.067 223.105 384.922 219.858 386.915C216.61 388.907 212.873 389.959 209.063 389.954H185.677C181.681 389.951 177.772 388.788 174.425 386.604C171.078 384.421 168.437 381.313 166.824 377.656C160.854 376.043 155.58 372.51 151.817 367.602C148.053 362.694 146.009 356.684 146 350.5V243.444C145.988 238.436 147.322 233.517 149.863 229.202C149.93 224.005 152.037 219.042 155.73 215.383C159.422 211.725 164.405 209.665 169.603 209.646H207.5C212.659 209.619 217.619 211.636 221.295 215.256H279.234C282.884 211.654 287.809 209.638 292.937 209.646H330.873C336.108 209.653 341.127 211.736 344.828 215.437C348.53 219.139 350.613 224.158 350.62 229.393V229.504C353.03 233.757 354.295 238.562 354.292 243.45V350.526C354.305 357.195 351.945 363.65 347.634 368.738C343.323 373.825 337.342 377.213 330.762 378.294C329.07 381.781 326.433 384.723 323.15 386.784C319.868 388.845 316.073 389.944 312.197 389.954ZM250.113 250.552C249.235 250.549 248.358 250.595 247.486 250.69C242.809 251.228 238.409 253.186 234.878 256.3C231.347 259.414 228.854 263.534 227.735 268.107C226.615 272.68 226.923 277.486 228.616 281.878C230.309 286.271 233.306 290.04 237.205 292.679C237.762 293.048 238.202 293.569 238.472 294.18C238.742 294.791 238.831 295.467 238.729 296.128L233.053 334.557C232.98 335.075 233.019 335.603 233.168 336.105C233.316 336.607 233.571 337.072 233.914 337.467C234.25 337.852 234.665 338.161 235.131 338.373C235.597 338.585 236.102 338.695 236.614 338.695H263.652C264.164 338.695 264.669 338.585 265.135 338.373C265.601 338.161 266.015 337.852 266.352 337.467C266.695 337.072 266.95 336.607 267.098 336.105C267.247 335.603 267.286 335.075 267.212 334.557L261.537 296.128C261.444 295.462 261.536 294.783 261.804 294.167C262.071 293.55 262.504 293.019 263.054 292.633C267.129 289.865 270.209 285.863 271.841 281.215C273.474 276.567 273.573 271.518 272.124 266.81C270.675 262.101 267.755 257.982 263.792 255.055C259.829 252.129 255.033 250.551 250.107 250.552H250.113Z" fill="url(#paint1_linear_107_151)"/>
<path d="M236.239 177.234C236.239 175.361 235.684 173.529 234.643 171.972C233.602 170.414 232.123 169.199 230.392 168.482C228.661 167.766 226.756 167.578 224.919 167.944C223.081 168.309 221.393 169.211 220.069 170.536C218.744 171.861 217.842 173.549 217.476 175.386C217.111 177.224 217.298 179.128 218.015 180.859C218.732 182.59 219.946 184.069 221.504 185.11C223.062 186.151 224.893 186.707 226.767 186.707C228.011 186.707 229.243 186.463 230.393 185.987C231.542 185.512 232.587 184.814 233.467 183.934C234.347 183.054 235.044 182.01 235.52 180.86C235.996 179.71 236.24 178.478 236.239 177.234ZM273.519 167.768C271.645 167.767 269.812 168.321 268.254 169.362C266.695 170.402 265.48 171.881 264.762 173.613C264.044 175.344 263.856 177.249 264.221 179.087C264.587 180.925 265.489 182.614 266.814 183.939C268.139 185.264 269.828 186.166 271.666 186.532C273.504 186.897 275.409 186.709 277.14 185.991C278.871 185.273 280.351 184.058 281.391 182.499C282.432 180.941 282.986 179.108 282.985 177.234C282.983 174.724 281.985 172.317 280.21 170.543C278.436 168.768 276.029 167.77 273.519 167.768ZM263.304 192.888C259.691 196.143 255.002 197.944 250.139 197.944C245.277 197.944 240.587 196.143 236.975 192.888C236.492 192.479 235.869 192.273 235.237 192.312C234.605 192.35 234.013 192.632 233.583 193.097C233.154 193.562 232.92 194.175 232.932 194.808C232.943 195.441 233.199 196.045 233.645 196.495C238.112 200.699 244.015 203.04 250.149 203.04C256.284 203.04 262.187 200.699 266.654 196.495C267.132 196.051 267.415 195.436 267.44 194.784C267.464 194.133 267.229 193.498 266.786 193.02C266.342 192.541 265.727 192.259 265.075 192.234C264.424 192.21 263.789 192.445 263.31 192.888" fill="#56B14E"/>
<path d="M263.646 347.775H236.627C234.818 347.765 233.033 347.368 231.39 346.61C229.748 345.853 228.286 344.753 227.104 343.384C225.922 342.015 225.046 340.409 224.536 338.674C224.026 336.938 223.893 335.114 224.146 333.323L229.401 298.001C224.637 293.956 221.16 288.606 219.399 282.61C217.638 276.613 217.67 270.233 219.49 264.254C221.311 258.276 224.84 252.96 229.644 248.963C234.448 244.965 240.317 242.46 246.527 241.757C247.732 241.619 248.946 241.558 250.159 241.573C256.713 241.575 263.107 243.587 268.481 247.338C273.855 251.088 277.949 256.397 280.211 262.547C282.473 268.697 282.794 275.394 281.131 281.732C279.468 288.071 275.901 293.747 270.911 297.995L276.166 333.317C276.428 335.109 276.302 336.937 275.795 338.676C275.288 340.415 274.413 342.024 273.229 343.395C272.045 344.766 270.58 345.866 268.933 346.621C267.286 347.375 265.496 347.767 263.685 347.768L263.646 347.775ZM250.186 250.573C249.308 250.58 248.431 250.632 247.558 250.73C242.88 251.26 238.476 253.21 234.94 256.317C231.404 259.425 228.904 263.542 227.779 268.114C226.653 272.685 226.955 277.492 228.644 281.886C230.333 286.281 233.327 290.052 237.225 292.693C237.787 293.057 238.231 293.577 238.501 294.19C238.771 294.803 238.855 295.482 238.742 296.142L233.073 334.604C233.001 335.115 233.039 335.635 233.185 336.13C233.33 336.625 233.58 337.083 233.917 337.473C234.255 337.863 234.672 338.176 235.14 338.392C235.609 338.608 236.118 338.72 236.634 338.723H263.646C264.166 338.719 264.679 338.605 265.151 338.388C265.624 338.17 266.044 337.854 266.385 337.462C266.719 337.072 266.964 336.615 267.106 336.122C267.248 335.629 267.282 335.111 267.206 334.604L261.537 296.142C261.447 295.473 261.545 294.791 261.82 294.174C262.095 293.557 262.536 293.029 263.094 292.647C267.153 289.877 270.219 285.881 271.844 281.243C273.469 276.606 273.567 271.57 272.125 266.872C270.683 262.174 267.775 258.061 263.828 255.135C259.88 252.208 255.1 250.621 250.186 250.605V250.573Z" fill="url(#paint2_linear_107_151)"/>
<path d="M263.646 347.762H236.627C234.818 347.752 233.033 347.354 231.39 346.597C229.748 345.84 228.286 344.74 227.104 343.371C225.922 342.002 225.046 340.396 224.536 338.661C224.026 336.925 223.893 335.101 224.146 333.31L229.401 297.988C224.637 293.943 221.16 288.593 219.399 282.597C217.638 276.6 217.67 270.22 219.49 264.241C221.311 258.262 224.84 252.947 229.644 248.949C234.448 244.952 240.317 242.447 246.527 241.744C247.732 241.606 248.946 241.545 250.159 241.56C256.713 241.562 263.107 243.574 268.481 247.325C273.855 251.075 277.949 256.384 280.211 262.534C282.473 268.684 282.794 275.381 281.131 281.719C279.468 288.058 275.901 293.734 270.911 297.982L276.166 333.303C276.428 335.096 276.302 336.923 275.795 338.663C275.288 340.402 274.413 342.011 273.229 343.382C272.045 344.753 270.58 345.853 268.933 346.608C267.286 347.362 265.496 347.754 263.685 347.755L263.646 347.762ZM250.179 250.56C249.301 250.566 248.424 250.619 247.551 250.717C242.874 251.248 238.471 253.198 234.936 256.307C231.4 259.415 228.902 263.532 227.777 268.103C226.652 272.674 226.955 277.48 228.644 281.875C230.333 286.269 233.328 290.04 237.225 292.68C237.786 293.045 238.229 293.565 238.499 294.178C238.768 294.791 238.853 295.469 238.742 296.129L233.073 334.591C232.99 335.099 233.018 335.619 233.154 336.115C233.29 336.612 233.531 337.073 233.861 337.468C234.202 337.861 234.622 338.177 235.095 338.395C235.567 338.612 236.081 338.726 236.601 338.729H263.646C264.161 338.727 264.671 338.614 265.139 338.399C265.608 338.183 266.025 337.869 266.362 337.479C266.699 337.089 266.949 336.631 267.095 336.136C267.24 335.642 267.278 335.121 267.206 334.611L261.537 296.129C261.437 295.463 261.526 294.782 261.794 294.164C262.063 293.546 262.499 293.016 263.054 292.634C267.133 289.878 270.22 285.886 271.86 281.245C273.5 276.603 273.607 271.558 272.166 266.852C270.724 262.145 267.81 258.025 263.852 255.098C259.894 252.171 255.102 250.592 250.179 250.592V250.56Z" fill="url(#paint3_linear_107_151)"/>
<defs>
<linearGradient id="paint0_linear_107_151" x1="250.637" y1="113.831" x2="250.936" y2="222.004" gradientUnits="userSpaceOnUse">
<stop stop-color="#56B14E"/>
<stop offset="0.539" stop-color="#4A9E41"/>
<stop offset="1" stop-color="#357C2A"/>
</linearGradient>
<linearGradient id="paint1_linear_107_151" x1="250.146" y1="384.364" x2="250.146" y2="211.629" gradientUnits="userSpaceOnUse">
<stop stop-color="#4A9E41"/>
<stop offset="1" stop-color="#56B14E"/>
</linearGradient>
<linearGradient id="paint2_linear_107_151" x1="251.23" y1="332.694" x2="247.54" y2="260.702" gradientUnits="userSpaceOnUse">
<stop stop-color="#56B14E"/>
<stop offset="0.3" stop-color="#4A9E41"/>
<stop offset="0.355" stop-color="#45973C"/>
<stop offset="0.523" stop-color="#3C8732"/>
<stop offset="0.717" stop-color="#367E2B"/>
<stop offset="1" stop-color="#357C2A"/>
</linearGradient>
<linearGradient id="paint3_linear_107_151" x1="251.23" y1="332.681" x2="247.54" y2="260.688" gradientUnits="userSpaceOnUse">
<stop stop-color="#56B14E" stop-opacity="0.153"/>
<stop offset="1" stop-color="#9BF893" stop-opacity="0.263"/>
</linearGradient>
</defs>
</svg>
