<svg width="500" height="500" viewBox="0 0 500 500" fill="none" xmlns="http://www.w3.org/2000/svg">
<rect width="500" height="500" fill="#3A76F0"/>
<path d="M0 0V500H500V0H0Z" fill="#3A76F0"/>
<path d="M208.74 83.1543L212.598 98.7793C197.394 102.537 182.843 108.561 169.434 116.65L161.182 102.832C175.942 93.8933 191.979 87.2578 208.74 83.1543ZM291.26 83.1543L287.402 98.7793C302.606 102.537 317.157 108.561 330.566 116.65L338.916 102.832C324.117 93.9011 308.049 87.2665 291.26 83.1543ZM102.832 161.133C93.9016 175.915 87.2668 191.967 83.1543 208.74L98.7793 212.598C102.537 197.394 108.561 182.843 116.65 169.434L102.832 161.133ZM94.2383 250C94.2371 242.187 94.8247 234.385 95.9961 226.66L80.0781 224.219C77.4902 241.292 77.4902 258.659 80.0781 275.732L95.9961 273.34C94.8265 265.615 94.2389 257.813 94.2383 250ZM338.818 397.119L330.566 383.35C317.178 391.446 302.642 397.471 287.451 401.221L291.309 416.846C308.049 412.703 324.067 406.052 338.818 397.119ZM405.762 250C405.761 257.813 405.173 265.615 404.004 273.34L419.922 275.732C422.51 258.659 422.51 241.292 419.922 224.219L404.004 226.66C405.175 234.385 405.763 242.187 405.762 250ZM416.846 291.211L401.221 287.353C397.472 302.575 391.447 317.143 383.35 330.566L397.168 338.867C406.107 324.072 412.742 308.003 416.846 291.211ZM273.34 404.004C257.868 406.348 242.132 406.348 226.66 404.004L224.268 419.922C241.325 422.51 258.675 422.51 275.732 419.922L273.34 404.004ZM375.391 342.383C366.11 354.968 354.982 366.08 342.383 375.342L351.953 388.33C365.83 378.114 378.107 365.887 388.379 352.051L375.391 342.383ZM342.383 124.609C354.983 133.889 366.111 145.017 375.391 157.617L388.379 147.949C378.143 134.101 365.899 121.857 352.051 111.621L342.383 124.609ZM124.609 157.617C133.889 145.017 145.017 133.889 157.617 124.609L147.949 111.621C134.101 121.857 121.857 134.101 111.621 147.949L124.609 157.617ZM397.168 161.133L383.35 169.434C391.446 182.822 397.471 197.358 401.221 212.549L416.846 208.691C412.733 191.933 406.098 175.898 397.168 161.133ZM226.66 95.9961C242.132 93.6521 257.868 93.6521 273.34 95.9961L275.732 80.0781C258.675 77.49 241.325 77.49 224.268 80.0781L226.66 95.9961ZM132.861 392.627L99.6093 400.342L107.373 367.09L91.6992 363.428L83.9355 396.68C83.4498 398.741 83.3752 400.878 83.7161 402.969C84.0571 405.059 84.8068 407.062 85.9224 408.862C87.038 410.663 88.4977 412.226 90.2178 413.461C91.938 414.697 93.8849 415.582 95.9472 416.064C98.3591 416.602 100.86 416.602 103.271 416.064L136.523 408.398L132.861 392.627ZM95.0195 349.072L110.742 352.685L116.113 329.639C108.27 316.481 102.428 302.23 98.7793 287.353L83.1543 291.211C86.6688 305.451 91.9852 319.185 98.9746 332.08L95.0195 349.072ZM170.215 383.935L147.168 389.307L150.83 405.029L167.773 401.074C180.659 408.085 194.395 413.402 208.643 416.894L212.5 401.269C197.669 397.573 183.469 391.699 170.361 383.838L170.215 383.935ZM250 110.352C172.852 110.4 110.4 172.949 110.4 250.049C110.443 276.309 117.871 302.028 131.836 324.268L118.408 381.592L175.684 368.164C240.967 409.228 327.197 389.648 368.262 324.414C409.326 259.18 389.795 172.949 324.561 131.836C302.228 117.792 276.381 110.344 250 110.352Z" fill="white"/>
</svg>
