<svg width="500" height="500" viewBox="0 0 500 500" fill="none" xmlns="http://www.w3.org/2000/svg">
<rect width="500" height="500" fill="#4360DF"/>
<path fill-rule="evenodd" clip-rule="evenodd" d="M249.524 16.0286C120.578 16.0286 16.0476 120.671 16.0476 249.752C16.0476 378.834 120.578 483.475 249.524 483.475C378.47 483.475 483 378.834 483 249.752C483 120.671 378.47 16.0286 249.524 16.0286Z" fill="#4360DF"/>
<path fill-rule="evenodd" clip-rule="evenodd" d="M257.363 239.508C269.087 240.729 280.811 241.951 295.224 241.147C334.277 238.968 357.933 218.903 356.254 188.909C354.543 158.394 323.072 139.594 291.582 141.351C240.265 144.213 202.529 189.315 198.279 240.864C205.248 239.23 212.584 238.255 219.501 237.869C233.916 237.066 245.64 238.286 257.363 239.508ZM156.765 306.22C158.384 334.193 188.2 351.427 218.032 349.815C266.648 347.191 302.4 305.848 306.425 258.593C299.823 260.092 292.875 260.987 286.32 261.341C272.664 262.078 261.557 260.958 250.449 259.839C239.343 258.719 228.235 257.599 214.579 258.337C177.585 260.334 155.172 278.727 156.765 306.22Z" fill="white"/>
</svg>
