<svg width="500" height="500" viewBox="0 0 500 500" fill="none" xmlns="http://www.w3.org/2000/svg">
<rect width="500" height="500" fill="#2C963F"/>
<g clip-path="url(#clip0_107_193)">
<path d="M336 364C349.1 364 359.7 374.6 359.7 387.7C359.7 400.8 349.1 411.4 336 411.4C322.9 411.4 312.4 400.8 312.4 387.7C312.4 374.6 322.9 364 336 364ZM165.4 364C178.5 364 189.1 374.6 189.1 387.7C189.1 400.8 178.5 411.4 165.4 411.4C152.3 411.4 141.8 400.8 141.8 387.7C141.7 374.6 152.3 364 165.4 364ZM250.7 364C263.8 364 274.4 374.6 274.4 387.7C274.4 400.8 263.8 411.4 250.7 411.4C237.6 411.4 227.1 400.8 227.1 387.7C227 374.6 237.6 364 250.7 364ZM250.7 88.1C327.5 88.1 389.7 142.9 389.7 210.4C389.7 277.9 327.5 332.7 250.7 332.7C228.9 332.7 208.2 328.3 189.8 320.4L120.2 337.8L135.1 278.3C120.4 258.9 111.8 235.5 111.8 210.4C111.7 142.9 173.9 88.1 250.7 88.1ZM250.7 145.2C228.9 145.2 211.3 162.8 211.3 184.6V200.3H209.8C206.3 200.3 203.5 203.1 203.5 206.6V262.2C203.5 265.7 206.3 268.5 209.8 268.5H291.8C295.3 268.5 298.1 265.7 298.1 262.2V206.6C298.1 203.1 295.3 200.3 291.8 200.3H290.3V184.6C290.1 162.8 272.5 145.2 250.7 145.2ZM250.7 160.9C263.8 160.9 274.4 171.5 274.4 184.5V200.2H227V184.5C227 171.5 237.6 160.9 250.7 160.9Z" fill="white"/>
</g>
<defs>
<clipPath id="clip0_107_193">
<rect width="278.7" height="323.3" fill="white" transform="translate(111 88)"/>
</clipPath>
</defs>
</svg>
