<svg width="500" height="500" viewBox="0 0 500 500" fill="none" xmlns="http://www.w3.org/2000/svg">
<rect width="500" height="500" fill="white"/>
<path d="M389 192.958L378.974 165.728L385.947 150.096C386.385 149.11 386.515 148.015 386.32 146.953C386.124 145.892 385.613 144.915 384.853 144.149L365.894 124.985C361.825 120.856 356.665 117.967 351.018 116.656C345.37 115.345 339.466 115.665 333.993 117.579L328.684 119.425L299.722 88.0478L250.593 87.7744H250.274L200.827 88.1618L171.888 119.79L166.738 117.967C161.23 116.03 155.283 115.704 149.596 117.028C143.909 118.352 138.718 121.27 134.632 125.441L115.331 144.969C114.725 145.58 114.319 146.359 114.164 147.205C114.01 148.051 114.115 148.924 114.465 149.709L121.734 165.933L111.754 193.14L118.202 217.682L147.62 329.519C151.009 342.402 158.806 353.69 169.655 361.421C169.655 361.421 205.362 386.6 240.59 409.478C243.376 411.702 246.835 412.913 250.4 412.913C253.964 412.913 257.423 411.702 260.209 409.478C299.79 383.546 331.099 361.329 331.099 361.329C341.939 353.595 349.728 342.308 353.111 329.428L382.369 217.545L389 192.958Z" fill="url(#paint0_linear_108_310)"/>
<path d="M258.478 289.323C256.602 288.484 254.668 287.783 252.69 287.227H249.203C247.225 287.783 245.291 288.484 243.416 289.323L234.643 292.969C231.863 294.131 227.397 296.205 224.731 297.526L208.597 305.935C208.013 306.124 207.499 306.484 207.121 306.969C206.743 307.453 206.519 308.039 206.478 308.652C206.436 309.265 206.579 309.876 206.888 310.407C207.196 310.938 207.657 311.365 208.21 311.631L222.224 321.521C224.685 323.253 228.559 326.306 230.837 328.357L234.779 331.752C237.058 333.712 240.772 336.97 243.028 338.975L246.765 342.28C247.92 343.242 249.375 343.768 250.878 343.768C252.381 343.768 253.837 343.242 254.991 342.28L258.911 338.862L267.159 331.661L271.124 328.197C273.403 326.215 277.254 323.162 279.715 321.361L293.729 311.335C294.283 311.069 294.744 310.642 295.052 310.109C295.359 309.576 295.499 308.963 295.452 308.35C295.405 307.737 295.174 307.152 294.789 306.672C294.405 306.193 293.884 305.84 293.296 305.661L277.186 297.481C274.497 296.114 270.031 294.063 267.228 292.923L258.478 289.323Z" fill="white"/>
<path d="M357.828 199.042L358.284 197.584C358.311 195.633 358.189 193.683 357.919 191.75C356.563 188.299 354.82 185.012 352.724 181.952L343.609 168.576C341.923 166.07 339.052 162.105 337.115 159.758L324.901 144.468C323.787 142.978 322.577 141.562 321.278 140.229H321.028C321.028 140.229 318.567 140.662 315.604 141.232L296.942 144.832L288.762 146.405C286.046 146.532 283.331 146.138 280.763 145.242L266.02 140.48C263.149 139.546 258.41 138.201 255.47 137.563C252.372 137.234 249.248 137.234 246.15 137.563C243.211 138.247 238.471 139.569 235.6 140.503L220.857 145.288C218.29 146.183 215.575 146.578 212.859 146.45L204.678 144.901L185.993 141.323C183.031 140.754 180.593 140.298 180.57 140.321H180.319C179.021 141.653 177.81 143.069 176.696 144.559L164.505 159.849C162.637 162.127 159.697 166.184 158.011 168.667L148.896 182.043C147.322 184.35 145.884 186.746 144.59 189.221C143.809 191.98 143.395 194.83 143.359 197.698L143.815 199.156C144.034 200.093 144.316 201.014 144.658 201.913C146.549 204.192 149.785 207.974 151.859 210.185L183.76 244.091C184.819 245.328 185.528 246.825 185.812 248.428C186.097 250.031 185.947 251.681 185.378 253.206L180.16 265.579C178.973 268.857 178.885 272.433 179.909 275.765L180.957 278.636C182.67 283.299 185.606 287.416 189.457 290.554L194.47 294.632C195.772 295.572 197.292 296.165 198.886 296.356C200.48 296.548 202.097 296.331 203.585 295.726L221.404 287.227C224.675 285.589 227.735 283.562 230.519 281.188L244.783 268.314C245.351 267.801 245.811 267.179 246.134 266.485C246.458 265.791 246.639 265.04 246.666 264.275C246.694 263.51 246.568 262.747 246.295 262.032C246.022 261.316 245.609 260.663 245.079 260.11L212.882 238.418C211.663 237.552 210.794 236.279 210.435 234.828C210.075 233.377 210.248 231.845 210.922 230.511L223.409 207.04C224.119 205.603 224.539 204.041 224.645 202.442C224.75 200.842 224.539 199.238 224.024 197.72C222.474 194.825 219.97 192.555 216.938 191.294L177.79 176.506C174.964 175.435 175.124 174.227 178.109 174.045L201.101 171.766C204.706 171.537 208.326 171.86 211.833 172.723L231.84 178.306C233.261 178.734 234.478 179.663 235.265 180.92C236.053 182.177 236.358 183.677 236.124 185.142L228.263 228.072C227.737 230.45 227.606 232.898 227.875 235.319C228.194 236.344 230.883 237.597 233.823 238.326L246.014 240.924C249.554 241.575 253.183 241.575 256.723 240.924L267.684 238.44C270.623 237.779 273.289 236.39 273.631 235.364C273.893 232.943 273.755 230.494 273.221 228.118L265.314 185.188C265.08 183.723 265.385 182.223 266.173 180.966C266.961 179.708 268.177 178.78 269.598 178.352L289.605 172.746C293.113 171.882 296.732 171.559 300.337 171.789L323.329 173.931C326.337 174.204 326.474 175.321 323.671 176.392L284.546 191.226C281.514 192.487 279.01 194.757 277.459 197.652C276.422 200.717 276.643 204.069 278.075 206.972L290.584 230.442C291.258 231.776 291.431 233.308 291.072 234.759C290.712 236.21 289.844 237.484 288.625 238.349L256.45 260.088C255.92 260.64 255.507 261.294 255.234 262.009C254.962 262.724 254.835 263.487 254.863 264.252C254.891 265.017 255.072 265.769 255.395 266.462C255.718 267.156 256.178 267.778 256.746 268.291L271.033 281.165C273.818 283.531 276.878 285.551 280.148 287.181L297.967 295.658C299.457 296.259 301.075 296.472 302.669 296.277C304.263 296.082 305.782 295.484 307.082 294.541L312.095 290.44C315.95 287.296 318.887 283.171 320.595 278.499L321.643 275.628C322.667 272.296 322.579 268.721 321.392 265.443L316.151 253.069C315.582 251.544 315.432 249.894 315.717 248.291C316.001 246.688 316.71 245.191 317.769 243.955L349.67 210.002C351.744 207.724 354.957 204.078 356.848 201.731C357.234 200.857 357.561 199.959 357.828 199.042Z" fill="white"/>
<defs>
<linearGradient id="paint0_linear_108_310" x1="111.845" y1="250.358" x2="388.909" y2="250.358" gradientUnits="userSpaceOnUse">
<stop stop-color="#F1562B"/>
<stop offset="0.3" stop-color="#F1542B"/>
<stop offset="0.41" stop-color="#F04D2A"/>
<stop offset="0.49" stop-color="#EF4229"/>
<stop offset="0.5" stop-color="#EF4029"/>
<stop offset="0.56" stop-color="#E83E28"/>
<stop offset="0.67" stop-color="#E13C26"/>
<stop offset="1" stop-color="#DF3C26"/>
</linearGradient>
</defs>
</svg>
