<svg width="24" height="24" viewBox="0 0 24 24" fill="none" xmlns="http://www.w3.org/2000/svg">
<path d="M16.2442 15.1387C17.3782 15.2233 18.5078 15.0646 19.561 14.6836C19.2796 15.4612 18.878 16.1944 18.3672 16.8551C17.4377 18.0572 16.1851 18.9698 14.756 19.486C13.3269 20.0022 11.7803 20.1008 10.2972 19.7701C8.81406 19.4394 7.45582 18.6931 6.38136 17.6187C5.30689 16.5442 4.56066 15.186 4.22996 13.7029C3.89927 12.2198 3.99779 10.6732 4.51401 9.24402C5.03023 7.81488 5.94278 6.5623 7.1449 5.63287C7.80562 5.12202 8.5388 4.72041 9.31641 4.43906C8.9354 5.49218 8.77676 6.62181 8.86132 7.75578C9.00382 9.6666 9.82742 11.4628 11.1823 12.8177C12.5372 14.1726 14.3334 14.9962 16.2442 15.1387Z" stroke="#141414" stroke-opacity="0.64" stroke-width="2" stroke-linecap="round" stroke-linejoin="round"/>
</svg>
