<svg width="500" height="500" viewBox="0 0 500 500" fill="none" xmlns="http://www.w3.org/2000/svg">
<rect width="500" height="500" fill="#674F73"/>
<path d="M266.293 102.85L257.078 139.448C270.131 113.6 290.862 94.1493 314.666 77C297.261 97.2189 281.394 117.44 271.668 137.659C288.049 114.623 310.059 101.827 334.884 93.3809C301.868 122.814 275.661 154.398 255.697 186.135L239.829 179.225C242.642 153.886 252.215 127.934 266.293 102.85Z" fill="#ABCD03"/>
<path d="M223.918 172.496L254.12 185.026C254.12 192.706 253.495 216.129 258.297 223.039C308.527 287.729 300.076 417.401 248.122 420.727C169.007 420.727 138.834 366.982 138.834 317.584C138.834 272.538 192.837 242.593 225.087 215.976C233.276 208.81 231.854 192.972 223.918 172.496Z" fill="#FFFCDB"/>
<path d="M254.129 184.575L265.013 190.128C263.99 197.292 265.525 213.163 272.689 217.256C304.428 236.964 334.371 258.462 346.145 279.961C388.12 355.721 316.712 425.847 255.03 419.193C288.558 394.365 298.285 343.435 285.744 287.894C280.626 266.138 272.689 246.431 258.611 224.164C252.513 213.234 254.642 199.678 254.129 184.575Z" fill="#7D4698"/>
<path d="M248.889 182.705L271.411 185.776C264.756 207.787 284.465 223.143 290.863 226.728C305.196 234.662 319.017 242.852 330.023 252.833C350.756 271.772 362.528 298.391 362.528 326.544C362.528 354.441 349.73 381.315 328.232 399.23C308.013 416.123 280.116 423.289 252.985 423.289C236.093 423.289 220.992 422.523 204.613 417.146C167.247 404.605 139.348 372.614 137.045 334.22C134.996 304.275 141.651 281.496 164.943 257.694C176.971 245.153 201.287 230.821 217.924 219.303C226.116 213.671 234.817 197.802 218.179 167.859L221.507 165.299L246.163 181.813L225.347 173.233C227.139 175.793 232.002 187.311 233.027 190.638C235.33 200.107 234.307 209.324 232.259 213.416C221.766 232.357 203.85 237.475 190.798 248.225C167.762 267.164 142.68 282.265 145.495 334.22C146.775 359.814 166.739 391.039 196.682 405.628C213.575 413.82 233.027 417.146 252.734 418.169C270.393 418.938 304.178 408.443 322.606 393.087C342.313 376.708 353.319 351.881 353.319 326.544C353.319 300.949 343.081 276.635 323.886 259.486C312.88 249.505 294.709 237.475 283.448 231.075C272.187 224.678 258.109 206.762 262.715 189.614L248.889 182.705Z" fill="black"/>
<path d="M241.979 220.585C239.676 232.359 237.116 253.601 226.878 261.536C222.527 264.606 218.175 267.679 213.569 270.749C195.142 283.292 176.712 295.062 168.268 325.264C166.476 331.664 168.013 338.574 169.55 344.972C174.156 363.399 187.209 383.363 197.447 395.137C197.447 395.649 199.495 396.929 199.495 397.441C207.941 407.424 210.501 410.238 242.493 417.403L241.724 420.988C222.529 415.87 206.661 411.264 196.678 399.744C196.678 399.489 194.887 397.696 194.887 397.696C184.137 385.409 171.083 364.936 166.222 345.74C164.43 338.06 162.895 332.176 164.942 324.239C173.643 293.016 192.584 280.73 211.779 267.677C216.131 264.862 221.249 262.301 225.343 258.974C233.276 253.09 237.626 235.172 241.979 220.585Z" fill="black"/>
<path d="M250.164 269.212C250.42 282.521 249.121 289.198 252.448 298.669C254.494 304.299 261.409 311.977 263.458 319.4C266.272 329.383 269.338 340.388 269.08 347.042C269.08 354.722 268.599 369.048 265.273 384.406C262.736 397.095 256.89 407.984 247.06 414.156C236.99 412.083 225.167 408.543 218.188 402.561C204.624 390.788 192.61 371.102 191.073 353.953C189.795 339.877 202.828 319.117 220.999 308.625C236.355 299.667 239.927 289.458 243.253 273.077C238.647 287.409 234.321 299.424 219.476 307.102C197.977 318.363 186.946 337.267 187.969 355.183C189.504 378.216 198.729 393.824 216.9 406.367C224.577 411.742 238.922 417.422 247.88 418.958V417.787C254.673 416.515 263.468 405.357 267.85 390.262C271.69 376.698 273.203 359.337 272.945 348.331C272.688 341.933 269.866 328.076 264.746 315.535C261.931 308.626 257.607 301.717 254.79 296.854C251.722 291.987 251.7 281.496 250.164 269.212Z" fill="black"/>
<path d="M248.641 319.4C248.896 328.358 252.494 339.836 254.029 351.61C255.311 360.313 254.754 369.054 254.497 376.734C254.244 385.623 251.283 401.55 247.235 409.295C243.419 407.545 241.926 405.549 239.447 402.326C236.377 397.975 234.292 393.623 232.243 388.505C230.708 384.666 228.914 380.271 228.144 375.153C227.121 367.475 227.407 355.463 236.108 343.177C242.763 333.451 244.288 332.711 246.591 321.45C243.518 331.431 241.227 332.449 234.059 340.893C226.126 350.108 224.806 363.68 224.806 374.684C224.806 379.293 226.643 384.405 228.437 389.267C230.483 394.387 232.239 399.484 235.054 403.322C239.286 409.545 244.702 413.084 247.353 413.746C247.369 413.75 247.394 413.743 247.411 413.746C247.468 413.759 247.533 413.794 247.587 413.805V413.512C252.553 407.975 255.541 402.475 256.547 396.938C257.827 390.284 258.121 383.615 258.889 375.68C259.656 369.025 259.1 360.062 257.308 350.849C254.75 339.331 250.432 327.588 248.641 319.4L248.641 319.4Z" fill="black"/>
<path d="M249.4 209.835C249.657 223.143 250.68 247.972 254.264 257.696C255.287 261.023 264.756 275.612 271.409 293.271C276.017 305.557 277.041 316.818 277.809 320.144C280.88 334.734 277.041 359.304 271.921 382.595C269.363 395.136 260.66 410.748 250.679 416.891L248.632 420.474C254.264 420.218 268.083 406.654 272.946 389.761C281.137 361.096 284.464 347.786 280.626 316.05C280.114 312.976 278.834 302.485 273.971 291.223C266.805 274.073 256.567 257.694 255.289 254.366C252.984 248.993 249.912 225.703 249.4 209.835Z" fill="black"/>
<path d="M254.203 191.633C253.443 205.31 253.24 210.347 255.798 220.328C258.613 231.334 272.948 247.201 278.834 265.374C290.095 300.182 287.28 345.74 279.089 381.315C276.019 393.854 261.428 412.028 246.841 417.913L257.59 420.473C263.476 420.216 278.575 406.14 284.464 390.016C293.931 364.677 295.725 334.477 291.885 302.74C291.628 299.669 286.508 272.284 281.647 260.766C274.735 243.618 262.449 228.261 261.171 224.936C258.87 219.305 253.813 207.613 254.203 191.633Z" fill="black"/>
<path d="M247.097 182.008H246.066V418.171H247.097V182.008Z" fill="black"/>
</svg>
