<svg width="500" height="500" viewBox="0 0 500 500" fill="none" xmlns="http://www.w3.org/2000/svg">
<g clip-path="url(#clip0_108_220)">
<rect width="500" height="500" fill="#EF3939"/>
<path d="M250 477.3C349.7 477.3 405.1 477.3 441.4 441.2C477.6 405.1 477.6 349.9 477.6 250.5C477.6 151.1 477.6 95.9 441.4 59.8C405.1 23.8 349.7 23.8 250 23.8C150.3 23.8 94.9 23.8001 58.6 59.9001C22.4 96 22.4 151.2 22.4 250.6C22.4 350 22.4 405.2 58.6 441.3C94.9 477.3 150.3 477.3 250 477.3Z" fill="#EF3939"/>
<path d="M398 166.7C376.2 128.6 339.7 98.9001 293.8 86.6001C202.7 62.3001 109.1 116.1 84.7 206.8C72.4 252.4 80 298.7 102.2 336.5C102.5 337 102.8 337.6 103.2 338.1L193.2 530.7C206.5 531.1 220.9 531.2 236.4 531.2H259C303.3 531.2 338.9 531.2 368 528C404.3 524 463.4 564.5 483.5 544.5C512.8 515.3 518.4 473.5 519.5 405.8C472.7 325 398.1 166.8 398 166.7Z" fill="url(#paint0_linear_108_220)"/>
<path d="M369.8 130.6C303.3 64.2001 195.4 64.2001 128.8 130.6C62.3 197 62.3 304.6 128.8 370.9C195.3 437.3 303.2 437.3 369.8 370.9C436.4 304.5 436.4 196.9 369.8 130.6ZM359.6 208.7C331.5 257.4 303.4 306.1 275.3 354.9C270.1 364 262.5 369.4 252.1 370.2C240.5 371 231.3 366.1 225.4 356.1C207.6 325.6 190 294.9 172.4 264.3C161.7 245.7 150.9 227.1 140.2 208.4C129.4 189.6 141.6 166.7 163.2 165.6C174.6 165 183.4 170.3 189.2 180.2C197.1 193.7 204.9 207.4 212.8 221C218.5 230.8 224 240.7 229.8 250.3C238.2 264.4 250.6 272.3 267.1 273.3C290.4 274.7 312.1 257.8 314.9 233.1C315.1 231.3 315.2 229.4 315.3 228.5C315.2 220.5 313.7 213.7 310.5 207.4C301.8 190 311.1 170.5 330 166.3C345.4 162.9 361.4 174.2 363.4 189.8C364.4 196.5 363 202.8 359.6 208.7Z" fill="white"/>
</g>
<defs>
<linearGradient id="paint0_linear_108_220" x1="164.698" y1="103.391" x2="380.423" y2="479.739" gradientUnits="userSpaceOnUse">
<stop stop-opacity="0.2"/>
<stop offset="0.7908" stop-opacity="0.05"/>
</linearGradient>
<clipPath id="clip0_108_220">
<rect width="500" height="500" fill="white"/>
</clipPath>
</defs>
</svg>
