<svg width="500" height="500" viewBox="0 0 500 500" fill="none" xmlns="http://www.w3.org/2000/svg">
<rect width="500" height="500" fill="white"/>
<path d="M250.186 111.161C327.063 111.161 389.385 173.536 389.385 250.479C389.385 327.422 327.063 389.797 250.186 389.797C173.31 389.797 110.988 327.422 110.988 250.479C110.988 173.536 173.31 111.161 250.186 111.161Z" fill="#DE5833"/>
<path d="M250.183 413.9C340.361 413.9 413.466 340.733 413.466 250.477C413.466 160.221 340.361 87.0538 250.183 87.0538C160.005 87.0538 86.9008 160.221 86.9008 250.477C86.9008 340.733 160.005 413.9 250.183 413.9ZM250.183 400.281C167.52 400.281 100.508 333.212 100.508 250.477C100.508 167.742 167.52 100.672 250.183 100.672C332.847 100.672 399.859 167.742 399.859 250.477C399.859 333.212 332.847 400.281 250.183 400.281Z" fill="#DE5833"/>
<path d="M182.374 156.414C182.348 154.071 184.048 152.759 186.307 151.84C185.273 152.009 184.282 152.268 183.39 152.668C181.036 153.736 179.275 157.781 179.292 159.695C190.724 158.539 207.63 159.339 219.993 163.032C220.905 162.904 221.818 162.776 222.744 162.669C210.413 157.19 195.753 155.074 182.374 156.414Z" fill="#D5D7D8"/>
<path d="M184.718 142.333C184.975 142.287 185.237 142.255 185.495 142.212C183.029 142.518 181.729 143.4 179.877 143.704C181.887 143.883 189.505 147.441 194.291 149.398C194.963 149.143 195.567 148.859 196.061 148.525C193.579 148.158 187.412 142.58 184.718 142.333Z" fill="#D5D7D8"/>
<path d="M196.605 170.04C195.92 170.304 195.269 170.58 194.705 170.876C176.069 180.703 167.837 203.656 172.743 231.16C177.221 256.189 195.575 341.705 203.979 381.927C206.432 382.79 208.915 383.592 211.429 384.319C203.946 348.105 183.519 253.211 178.752 226.56C173.921 199.447 178.622 179.992 196.605 170.04Z" fill="#D5D7D8"/>
<path d="M272.017 367.345C271.71 367.551 271.343 367.743 270.952 367.93C270.663 369.053 270.221 369.905 269.576 370.333C265.727 372.889 254.856 374.176 249.116 372.889C248.128 372.67 247.38 372.307 246.796 371.808C236.995 377.254 222.902 384.505 220.039 382.871C215.568 380.305 214.919 346.387 215.568 338.063C216.041 331.779 238.093 341.957 248.821 347.296C251.193 345.079 257.003 343.595 262.146 343.091C254.376 324.162 248.645 302.511 252.158 287.157C247.302 283.771 240.866 275.916 242.206 267.718C243.239 261.478 259.349 249.673 270.756 248.96C282.189 248.238 285.752 248.401 295.277 246.118C295.754 246.004 296.278 245.878 296.826 245.746C302.689 225.117 288.627 189.228 272.942 173.523C267.829 168.405 259.967 165.184 251.108 163.483C247.702 158.804 242.206 154.33 234.426 150.187C219.98 142.51 202.127 139.385 185.496 142.212C185.237 142.255 184.975 142.287 184.718 142.333C187.412 142.58 193.579 148.158 196.061 148.525C195.567 148.859 194.963 149.143 194.291 149.398C191.962 150.285 188.796 150.824 186.307 151.84C184.048 152.759 182.348 154.071 182.374 156.414C195.753 155.074 210.413 157.19 222.744 162.669C221.818 162.775 220.905 162.904 219.993 163.032C211.249 164.263 203.211 166.53 197.405 169.596C197.132 169.739 196.873 169.893 196.605 170.04C178.622 179.992 173.921 199.447 178.752 226.56C183.519 253.211 204.079 349.575 211.563 385.788C223.866 389.352 235.371 392.2 248.821 392.2C260.24 392.2 273.974 389.667 284.594 387.071C280.864 379.873 276.066 371.913 273.109 366.205C272.714 366.676 272.403 367.088 272.017 367.345ZM279.542 230.697C274.668 230.697 270.692 226.729 270.692 221.823C270.692 216.939 274.668 212.971 279.542 212.971C284.443 212.971 288.403 216.939 288.403 221.823C288.403 226.729 284.443 230.697 279.542 230.697ZM284.873 197.345C284.873 197.345 279.291 194.153 274.959 194.207C266.057 194.324 263.633 198.261 263.633 198.261C263.633 198.261 265.127 188.876 276.51 190.759C282.682 191.786 284.873 197.345 284.873 197.345ZM191.015 208.882C191.015 208.882 187.006 199.941 197.69 195.559C208.386 191.176 213.595 198.053 213.595 198.053C213.595 198.053 205.828 194.537 198.276 199.287C190.737 204.031 191.015 208.882 191.015 208.882ZM200.355 227.941C200.355 222.239 204.962 217.626 210.666 217.626C216.354 217.626 220.967 222.239 220.967 227.941C220.967 233.643 216.354 238.252 210.666 238.252C204.962 238.255 200.355 233.643 200.355 227.941Z" fill="white"/>
<path d="M220.967 227.941C220.967 222.239 216.354 217.625 210.666 217.625C204.962 217.625 200.355 222.239 200.355 227.941C200.355 233.643 204.962 238.255 210.666 238.252C216.354 238.252 220.967 233.643 220.967 227.941ZM215.229 227.183C213.766 227.187 212.563 225.983 212.563 224.503C212.563 223.019 213.762 221.825 215.229 221.825C216.708 221.825 217.907 223.019 217.907 224.503C217.907 225.983 216.708 227.183 215.229 227.183Z" fill="#2D4F8E"/>
<path d="M215.23 221.825C213.762 221.825 212.563 223.019 212.563 224.503C212.563 225.983 213.766 227.187 215.23 227.183C216.708 227.183 217.907 225.983 217.907 224.503C217.907 223.019 216.708 221.825 215.23 221.825Z" fill="white"/>
<path d="M279.542 212.971C274.668 212.971 270.692 216.94 270.692 221.823C270.692 226.729 274.668 230.697 279.542 230.697C284.443 230.697 288.403 226.729 288.403 221.823C288.403 216.94 284.443 212.971 279.542 212.971ZM283.471 221.17C282.222 221.17 281.191 220.153 281.191 218.876C281.191 217.615 282.222 216.581 283.471 216.581C284.774 216.581 285.774 217.615 285.774 218.876C285.774 220.153 284.774 221.17 283.471 221.17Z" fill="#2D4F8E"/>
<path d="M283.471 216.581C282.222 216.581 281.191 217.615 281.191 218.876C281.191 220.153 282.222 221.17 283.471 221.17C284.774 221.17 285.774 220.153 285.774 218.876C285.774 217.615 284.774 216.581 283.471 216.581Z" fill="white"/>
<path d="M213.595 198.053C213.595 198.053 208.386 191.176 197.69 195.559C187.006 199.941 191.015 208.882 191.015 208.882C191.015 208.882 190.737 204.031 198.276 199.287C205.828 194.537 213.595 198.053 213.595 198.053Z" fill="url(#paint0_linear_108_315)"/>
<path d="M276.51 190.759C265.127 188.876 263.633 198.261 263.633 198.261C263.633 198.261 266.057 194.324 274.959 194.207C279.291 194.153 284.873 197.345 284.873 197.345C284.873 197.345 282.682 191.786 276.51 190.759Z" fill="url(#paint1_linear_108_315)"/>
<path d="M270.756 248.96C259.349 249.673 243.239 261.478 242.206 267.718C240.866 275.916 247.302 283.771 252.158 287.157C252.171 287.166 252.185 287.178 252.197 287.187C257.052 290.567 289.377 301.481 305.414 301.179C321.469 300.866 347.838 291.025 344.942 283.14C342.059 275.252 315.872 290.099 288.558 287.565C268.33 285.684 264.759 276.614 269.238 269.989C274.872 261.663 285.133 271.569 302.059 266.5C319.009 261.445 342.715 252.397 351.511 247.47C371.848 236.122 343.001 231.416 336.187 234.564C329.728 237.551 307.248 243.229 296.826 245.746C296.278 245.878 295.754 246.004 295.277 246.118C285.752 248.401 282.189 248.238 270.756 248.96Z" fill="#FDD209"/>
<path d="M245.28 352.409C245.28 351.228 246.229 350.182 247.736 349.291C247.778 348.574 248.168 347.908 248.821 347.296C238.093 341.957 216.041 331.779 215.568 338.063C214.919 346.387 215.568 380.305 220.039 382.871C222.902 384.505 236.995 377.254 246.796 371.808C243.968 369.396 245.28 363.541 245.28 352.409Z" fill="#65BC46"/>
<path d="M272.966 366.15C273.013 366.168 273.063 366.187 273.109 366.205C281.89 369.597 299.372 375.982 303.168 374.588C308.287 372.63 307.005 331.69 301.26 330.385C296.658 329.363 279.04 341.788 272.108 346.85C273.334 352.031 274.818 362.295 272.966 366.15Z" fill="#65BC46"/>
<path d="M251.555 369.901C245.796 368.624 247.721 362.857 247.721 349.421C247.721 349.377 247.733 349.335 247.736 349.291C246.229 350.182 245.28 351.228 245.28 352.409C245.28 363.541 243.968 369.396 246.796 371.808C247.38 372.307 248.128 372.67 249.116 372.889C254.856 374.177 265.727 372.889 269.576 370.333C270.221 369.905 270.663 369.054 270.952 367.93C266.447 370.09 256.828 371.102 251.555 369.901Z" fill="#43A244"/>
<path d="M248.821 347.296C248.168 347.908 247.778 348.574 247.736 349.291C247.733 349.335 247.721 349.377 247.721 349.421C247.721 362.857 245.796 368.624 251.555 369.901C256.828 371.101 266.447 370.09 270.952 367.93C271.343 367.743 271.71 367.551 272.017 367.345C272.403 367.088 272.714 366.676 272.966 366.15C274.818 362.296 273.334 352.032 272.108 346.85C271.838 345.71 271.581 344.812 271.375 344.286C270.846 342.976 266.77 342.638 262.146 343.091C257.003 343.595 251.193 345.079 248.821 347.296Z" fill="#65BC46"/>
<defs>
<linearGradient id="paint0_linear_108_315" x1="206.834" y1="208.882" x2="190.278" y2="208.882" gradientUnits="userSpaceOnUse">
<stop stop-color="#394A9F"/>
<stop offset="1" stop-color="#6176B9"/>
</linearGradient>
<linearGradient id="paint1_linear_108_315" x1="278.714" y1="198.261" x2="263.633" y2="198.261" gradientUnits="userSpaceOnUse">
<stop stop-color="#394A9F"/>
<stop offset="1" stop-color="#6176B9"/>
</linearGradient>
</defs>
</svg>
