<svg width="500" height="500" viewBox="0 0 500 500" fill="none" xmlns="http://www.w3.org/2000/svg">
<rect width="500" height="500" fill="white"/>
<g clip-path="url(#clip0_107_171)">
<path fill-rule="evenodd" clip-rule="evenodd" d="M564.948 275.537L557.513 300.772H481.39V297.215L491.244 290.417V209.228L481.39 202.431V198.874H561.068L562.845 200.652L557.839 223.461H554.284C551.051 209.386 546.361 207.45 523.088 207.45H511.935V244.808L548.622 242.546L549.431 243.188L546.035 255.158L545.067 255.484L511.935 252.253V292.196H522.441C541.35 292.196 551.214 289.291 561.394 274.248L564.948 275.537ZM1349 202.431L1339.14 209.228V299.473L1337.85 300.772H1322.17L1264.3 220.714V290.417L1275.95 297.215V300.772H1243.94V297.215L1253.8 290.417V208.907L1242.49 202.431V198.874H1273.03L1328.63 276.184V209.228L1317 202.431V198.874H1349V202.431ZM1182.52 290.417L1194.16 297.215V300.772H1152.14V297.215L1162 290.417V209.228L1152.14 202.431V198.874H1194.81C1224.55 198.874 1239.9 209.065 1239.9 228.634C1239.9 250.954 1218.25 266.16 1186.08 266.16C1184.63 266.16 1183.33 266.16 1182.52 265.992V290.417ZM1144.06 202.431L1134.04 209.065L1100.74 300.772H1081.51L1046.11 209.549L1035.77 202.431V198.874H1077.47V202.431L1067.29 209.386L1096.06 283.298H1097.19L1121.43 209.228L1111.08 202.431V198.874H1144.06V202.431ZM1182.52 257.589C1205.15 258.236 1218.89 247.397 1218.89 229.128C1218.89 214.08 1211.14 206.481 1195.62 206.481C1191.25 206.481 1186.24 207.608 1182.52 209.386V257.589ZM753.246 258.557C753.246 283.95 736.272 302.066 712.51 302.066C705.564 302.066 699.743 300.283 694.09 297.862V322.766L705.727 329.559V333.116H664.508V329.559L674.535 322.766V234.137L664.508 228.15V224.588L691.178 219.252L694.09 221.199V232.517C700.395 224.43 710.412 219.42 720.76 219.42C739.99 219.42 753.246 236.237 753.246 258.557ZM818.379 237.21H814.825C812.238 235.59 809.488 234.78 806.738 234.78C800.764 234.78 795.106 237.047 790.095 241.41V290.417L802.058 297.215V300.772H760.355V297.215L770.377 290.417V234.137L760.355 228.15V224.588L787.183 219.252L790.095 221.199V233.969C795.264 225.561 804.319 219.578 813.368 219.578C817.575 219.578 821.129 220.714 824.037 222.809L818.379 237.21ZM879.149 259.526C868.322 259.526 856.202 259.204 842.951 258.72C844.728 276.836 854.582 287.344 870.746 287.344C880.443 287.344 886.747 284.919 892.079 280.393L895.476 282.982C890.144 295.753 878.181 302.709 862.664 302.709C838.907 302.709 822.907 286.376 822.907 261.467C822.907 237.694 838.745 219.252 862.827 219.252C873.98 219.252 882.383 222.809 888.366 229.77C894.345 236.726 897.253 245.777 897.095 256.937L894.666 259.367C891.437 259.526 886.263 259.526 879.149 259.526ZM911.151 277.805H914.547C920.852 288.155 930.064 294.137 937.983 294.137C945.097 294.137 949.462 290.417 949.462 284.598C949.462 277.963 945.581 274.406 935.88 270.69L928.608 267.939C914.873 262.761 906.628 254.516 906.628 243.677C906.628 230.254 919.237 219.904 937.983 219.904C948.81 219.904 959.153 222.493 966.756 227.018L958.995 240.283H955.761C950.429 232.033 943.804 227.828 936.043 227.828C929.096 227.828 924.569 231.707 924.569 237.047C924.569 242.867 928.771 246.424 941.217 251.28L949.462 254.516C962.066 259.367 967.561 266.97 967.561 276.836C967.561 292.359 955.115 302.066 936.206 302.066C924.569 302.066 912.77 298.993 904.204 293.658L911.151 277.805ZM982.105 277.805H985.502C991.806 288.155 1001.02 294.137 1008.93 294.137C1016.05 294.137 1020.41 290.417 1020.41 284.598C1020.41 277.963 1016.54 274.406 1006.83 270.69L999.562 267.939C985.823 262.761 977.583 254.516 977.583 243.677C977.583 230.254 990.187 219.904 1008.93 219.904C1019.77 219.904 1030.11 222.493 1037.71 227.018L1029.95 240.283H1026.71C1021.38 232.033 1014.76 227.828 1007 227.828C1000.05 227.828 995.519 231.707 995.519 237.047C995.519 242.867 999.725 246.424 1012.17 251.28L1020.41 254.516C1033.02 259.367 1038.52 266.97 1038.52 276.836C1038.52 292.359 1026.07 302.066 1007.16 302.066C995.519 302.066 983.724 298.993 975.154 293.658L982.105 277.805ZM623.945 259.852L647.702 290.417L656.589 297.215V300.772H616.347V297.215L624.755 290.901L608.587 268.912L593.07 290.901L602.445 297.215V300.772H570.443V297.215L580.307 290.58L603.417 262.119L579.819 232.033L570.769 224.919V221.362H610.848V224.919L602.608 231.223L618.609 253.059L634.126 231.223L624.755 224.919V221.362H656.752V224.919L646.893 231.549L623.945 259.852ZM876.562 249.013C874.785 234.78 868.164 227.987 859.273 227.987C849.576 227.987 843.109 237.531 842.625 251.122L876.562 249.013ZM733.848 266.803C733.848 248.854 725.124 233.969 711.059 233.969C705.243 233.969 699.585 235.916 694.09 239.957V282.493C698.618 289.449 705.564 292.848 713.804 292.848C726.092 292.848 733.848 283.14 733.848 266.803ZM177.408 369.693C143.954 369.693 122.617 350.887 122.617 324.751C122.617 316.141 125.165 305.628 135.039 284.272H100L132.169 215.417H356.099C361.197 215.417 364.699 211.596 364.699 207.138C364.699 202.67 361.197 198.845 356.099 198.845H174.854L190.783 164.741C200.657 143.706 221.999 130 245.248 130H321.381C365.336 130 397.826 160.278 397.826 199.799C397.826 246.659 354.825 284.272 305.136 284.272H157.977C153.512 293.514 158.609 300.849 169.441 300.849H286.659C306.09 300.849 321.06 314.55 321.06 332.081C321.06 352.162 301.634 369.693 279.65 369.693H177.408Z" fill="#DA3940"/>
</g>
<defs>
<clipPath id="clip0_107_171">
<rect width="299" height="240" fill="white" transform="translate(100 130)"/>
</clipPath>
</defs>
</svg>
