<svg width="500" height="500" viewBox="0 0 500 500" fill="none" xmlns="http://www.w3.org/2000/svg">
<rect width="500" height="500" fill="white"/>
<path d="M351.962 104.526C343.637 114.22 339.76 136.037 348.201 158.154C356.643 180.271 369.582 175.467 377.648 198.021C388.294 227.78 383.339 267.757 383.339 267.757C383.339 267.757 396.137 304.82 405.056 265.451C424.797 191.503 351.962 122.736 351.962 104.526Z" fill="url(#paint0_radial_108_230)"/>
<path d="M250.373 411.534C335.631 411.534 404.697 342.094 404.697 256.47C404.697 170.846 335.631 101.406 250.455 101.406C165.28 101.406 96.2143 170.846 96.2143 256.47C96.0491 342.176 165.197 411.534 250.373 411.534Z" fill="url(#paint1_radial_108_230)"/>
<path d="M366.004 352.084C362.668 354.438 359.168 356.55 355.532 358.406C360.349 351.347 364.794 344.041 368.847 336.517C372.136 332.877 375.149 329.339 377.604 325.513C378.799 323.633 380.146 321.313 381.573 318.622C390.237 303.013 399.79 277.751 400.061 251.803V251.74C400.067 251.102 400.071 250.463 400.065 249.823C400.11 243.31 399.444 236.811 398.08 230.442C398.149 230.939 398.21 231.437 398.273 231.934C398.196 231.551 398.131 231.165 398.049 230.782C398.176 231.489 398.279 232.172 398.388 232.862C400.159 247.886 398.898 262.542 392.589 273.346C392.489 273.504 392.387 273.652 392.287 273.806C395.558 257.385 396.653 239.254 393.013 221.101C393.013 221.101 391.557 212.277 380.714 185.487C374.473 170.068 363.389 157.426 353.597 148.216C345.013 137.596 337.217 130.47 332.92 125.945C323.943 116.493 320.181 109.407 318.636 104.784C317.296 104.113 300.163 87.4686 298.802 86.8345C291.323 98.4295 267.804 134.698 278.992 168.584C284.062 183.941 296.885 199.879 310.304 208.821C310.894 209.494 318.29 217.527 321.807 235.645C325.439 254.363 323.529 268.97 316.055 290.569C307.264 309.518 284.742 328.25 263.655 330.167C218.572 334.262 202.068 307.532 202.068 307.532C218.177 313.972 235.988 312.625 246.819 305.948C257.736 299.194 264.339 294.187 269.699 296.162C274.983 298.127 279.19 292.422 275.415 286.508C272.5 282.018 268.328 278.485 263.42 276.348C258.512 274.211 253.084 273.564 247.811 274.489C236.883 276.265 226.873 284.922 212.554 276.538C211.628 276 210.731 275.413 209.867 274.778C208.923 274.158 212.936 275.723 211.999 275.017C209.213 273.504 204.281 270.205 203.002 269.032C202.789 268.836 205.164 269.789 204.951 269.594C191.563 258.569 193.235 251.121 193.656 246.45C193.993 242.713 196.424 237.924 200.522 235.982C202.501 237.062 203.735 237.887 203.735 237.887C203.735 237.887 202.89 236.162 202.434 235.253C202.594 235.184 202.747 235.202 202.906 235.134C204.528 235.917 208.113 237.95 210.001 239.19C212.459 240.924 213.243 242.471 213.243 242.471C213.243 242.471 213.89 242.114 213.412 240.602C213.238 239.982 212.491 238.011 210.056 236.022L210.208 236.039C211.666 236.87 213.047 237.828 214.334 238.904C215.021 236.408 216.255 233.801 215.984 229.138C215.818 225.859 215.895 225.01 215.317 223.744C214.799 222.656 215.607 222.232 216.505 223.362C216.351 222.477 216.094 221.613 215.737 220.789L215.745 220.704C216.866 216.798 239.472 206.638 241.117 205.45C243.821 203.537 246.088 201.072 247.769 198.219C249.026 196.215 249.972 193.404 250.202 189.141C250.326 186.066 248.896 184.018 226.038 181.625C219.787 181.009 216.119 176.48 214.035 172.3C213.654 171.399 213.267 170.583 212.879 169.768C212.508 168.815 212.211 167.835 211.989 166.837C215.726 156.104 222.005 147.029 231.238 140.172C231.741 139.714 229.228 140.289 229.731 139.831C230.317 139.296 234.148 137.753 234.871 137.406C235.755 136.988 231.088 135.007 226.968 135.489C222.773 135.962 221.882 136.463 219.642 137.412C220.572 136.487 223.527 135.274 222.834 135.282C218.31 135.976 212.69 138.605 207.885 141.583C207.875 141.065 207.974 140.55 208.175 140.072C205.936 141.022 200.436 144.865 198.835 148.117C198.904 147.494 198.935 146.867 198.928 146.24C197.222 147.663 195.683 149.274 194.34 151.044L194.256 151.12C181.269 145.888 169.84 145.549 160.168 147.895C158.052 145.77 157.018 147.324 152.204 136.746C151.877 136.109 152.455 137.375 152.204 136.746C151.412 134.695 152.687 139.483 152.204 136.746C144.109 143.133 133.458 150.372 128.346 155.481C128.282 155.685 134.31 153.778 128.346 155.481C126.257 156.078 126.399 157.317 126.081 168.518C126.005 169.368 126.073 170.319 126.004 171.083C121.92 176.287 119.138 180.694 118.086 182.977C112.804 192.079 106.987 206.267 101.348 228.712C103.835 222.628 106.834 216.766 110.312 211.189C105.623 223.103 101.089 241.81 100.183 270.619C101.317 264.675 102.772 258.795 104.54 253.007C103.433 276.908 107.555 300.763 116.618 322.907C119.861 330.841 125.226 342.882 134.358 356.074C163.052 386.264 203.523 405.059 248.338 405.059C295.123 405.059 337.135 384.589 366.004 352.084Z" fill="url(#paint2_linear_108_230)"/>
<path d="M331.386 374.012C388.009 367.455 413.075 309.104 380.886 307.957C351.81 307.028 304.566 377.106 331.386 374.012Z" fill="url(#paint3_radial_108_230)"/>
<path d="M384.963 296.038C423.92 273.366 413.762 224.393 413.762 224.393C413.762 224.393 398.727 241.859 388.514 269.7C378.424 297.268 361.541 309.732 384.963 296.038Z" fill="url(#paint4_radial_108_230)"/>
<path d="M261.29 402.99C315.603 420.321 362.284 377.535 333.509 363.246C307.348 350.36 235.511 394.795 261.29 402.99Z" fill="url(#paint5_radial_108_230)"/>
<path d="M389.01 316.831C390.331 314.967 392.118 308.997 393.696 306.328C403.285 290.85 403.353 278.508 403.353 278.225C409.145 249.294 408.62 237.48 405.057 215.632C402.188 198.041 389.648 172.838 378.784 160.702C367.59 148.199 375.477 152.273 364.638 143.14C355.137 132.608 345.926 122.179 340.909 117.985C304.657 87.6772 305.476 81.2397 306.174 80.1421C306.056 80.2711 305.883 80.4626 305.662 80.7133C305.233 79.0018 304.93 77.5625 304.93 77.5625C304.93 77.5625 285.113 97.3789 280.941 130.406C278.218 151.968 286.289 174.446 297.977 188.812C304.062 196.258 310.94 203.019 318.488 208.977V208.968C327.319 221.649 332.179 237.298 332.179 254.131C332.179 296.282 297.99 330.453 255.816 330.453C250.068 330.456 244.338 329.812 238.734 328.534C218.835 324.742 207.345 314.704 201.614 307.889C198.33 303.984 196.933 301.137 196.933 301.137C214.762 307.524 234.475 306.188 246.463 299.566C258.544 292.868 265.853 287.904 271.785 289.861C277.633 291.81 282.288 286.153 278.113 280.288C274.02 274.432 263.372 266.045 247.561 268.368C235.467 270.13 224.387 278.715 208.54 270.4C207.52 269.87 206.527 269.288 205.566 268.655C204.522 268.04 208.962 269.592 207.926 268.892C204.842 267.391 199.383 264.12 197.968 262.956C197.732 262.763 200.361 263.708 200.123 263.513C185.306 252.579 187.156 245.194 187.622 240.561C187.995 236.855 190.686 232.106 195.222 230.18C197.412 231.251 198.777 232.069 198.777 232.069C198.777 232.069 197.842 230.358 197.337 229.457C197.514 229.39 197.683 229.407 197.859 229.339C199.653 230.115 203.621 232.13 205.711 233.362C208.432 235.081 209.299 236.615 209.299 236.615C209.299 236.615 210.016 236.262 209.486 234.762C209.292 234.147 208.467 232.192 205.772 230.22L205.94 230.237C207.541 231.052 209.068 232.003 210.507 233.078C211.267 230.603 212.634 228.017 212.333 223.393C212.149 220.142 212.234 219.299 211.594 218.044C211.022 216.966 211.916 216.545 212.909 217.666C212.737 216.782 212.452 215.923 212.06 215.113L212.068 215.029C213.309 211.155 238.328 201.079 240.15 199.901C243.084 198.059 245.593 195.614 247.511 192.729C248.902 190.742 249.95 187.954 250.205 183.726C250.29 181.821 249.704 180.313 243.078 178.871C239.101 178.006 232.949 177.163 223.459 176.273C216.54 175.662 212.481 171.171 210.174 167.025C209.753 166.132 209.324 165.322 208.895 164.514C208.486 163.575 208.157 162.602 207.91 161.608C212.05 150.77 219.506 141.516 229.214 135.164C229.771 134.71 226.989 135.281 227.546 134.826C228.195 134.296 232.435 132.766 233.236 132.421C234.214 132.009 229.048 130.043 224.489 130.521C219.845 130.99 218.859 131.486 216.381 132.428C217.409 131.51 220.68 130.307 219.913 130.316C214.907 131.004 208.684 133.611 203.365 136.564C203.355 136.047 203.465 135.534 203.686 135.065C201.207 136.007 195.121 139.819 193.349 143.044C193.425 142.426 193.459 141.805 193.451 141.183C191.585 142.573 189.882 144.171 188.375 145.945L188.282 146.021C173.908 140.832 161.258 140.497 150.554 142.823C148.212 140.716 144.447 137.529 139.119 127.039C138.757 126.408 138.563 128.345 138.284 127.721C136.214 122.919 134.963 115.051 135.169 109.627C135.169 109.627 130.886 111.579 127.342 119.73C126.684 121.195 126.262 122.003 125.84 122.812C125.646 123.047 126.28 120.135 126.179 120.293C125.563 121.336 123.969 122.794 123.269 124.68C122.787 126.078 122.113 126.861 121.682 128.604L121.581 128.764C121.546 128.25 121.708 126.65 121.59 126.978C119.929 130.335 118.499 133.801 117.311 137.353C115.403 143.627 113.181 152.166 112.829 163.276C112.744 164.118 112.82 165.061 112.743 165.82C108.224 170.98 105.144 175.35 103.98 177.615C98.1368 186.644 91.6982 200.715 85.4567 222.973C88.2336 216.893 91.5543 211.076 95.3781 205.594C90.188 217.408 85.171 235.961 84.168 264.532C85.4278 258.619 87.0382 252.787 88.9907 247.066C88.0944 266.117 90.3135 289.737 102.358 316.386C109.509 332.061 125.971 363.893 166.194 388.733L166.191 388.736C166.191 388.736 179.875 398.922 203.396 406.556C205.134 407.187 206.895 407.808 208.692 408.41C208.128 408.183 207.583 407.943 207.053 407.697C222.709 412.388 238.964 414.777 255.308 414.789C316.21 414.841 334.172 390.384 334.172 390.384C334.172 390.384 334.109 390.431 333.994 390.515C334.853 389.706 335.681 388.865 336.477 387.992C326.868 397.066 304.939 397.668 296.74 397.013C310.724 392.906 319.925 389.432 337.824 382.579C339.919 381.802 342.061 380.917 344.25 379.923C344.486 379.818 344.725 379.705 344.963 379.597C345.397 379.395 345.827 379.204 346.266 378.991C354.986 374.881 363.186 369.748 370.693 363.699C388.667 349.34 392.577 335.345 394.622 326.117C394.336 327.001 393.448 329.063 392.824 330.399C388.195 340.301 377.93 346.377 366.782 351.588C372.087 344.627 377.006 337.381 381.518 329.882C385.157 326.272 386.293 320.626 389.01 316.831Z" fill="url(#paint6_radial_108_230)"/>
<path d="M367.133 351.162C374.461 343.082 381.042 333.84 386.027 323.36C398.856 296.388 418.69 251.542 403.069 204.703C390.723 167.684 373.771 147.441 352.248 127.667C317.293 95.5558 307.531 81.2202 307.531 72.6953C307.531 72.6953 267.172 117.685 284.675 164.609C302.179 211.533 338.027 209.813 361.743 258.78C389.651 316.402 339.163 379.283 297.412 396.882C299.968 396.315 390.225 375.89 394.969 324.263C394.861 325.213 392.828 339.492 367.133 351.162Z" fill="url(#paint7_radial_108_230)"/>
<path d="M250.206 183.727C250.342 180.678 248.761 178.631 223.547 176.266C213.173 175.308 209.201 165.72 207.99 161.685C204.301 171.268 202.778 181.324 203.597 193.487C204.157 201.455 209.51 210.008 212.069 215.03C212.069 215.03 212.638 214.291 212.901 214.017C217.719 209 237.91 201.356 239.806 200.271C241.897 198.95 249.855 193.136 250.206 183.727Z" fill="url(#paint8_linear_108_230)"/>
<path d="M139.207 127.093C138.845 126.461 138.651 128.399 138.372 127.775C136.302 122.973 135.043 115.19 135.341 109.689C135.341 109.689 131.058 111.641 127.514 119.792C126.856 121.258 126.434 122.066 126.012 122.874C125.818 123.11 126.452 120.197 126.351 120.356C125.735 121.399 124.141 122.856 123.449 124.658C122.875 126.132 122.285 126.923 121.846 128.751C121.71 129.248 121.982 126.553 121.864 126.881C113.62 142.812 112.047 166.901 112.916 165.882C130.465 147.144 150.576 142.699 150.576 142.699C148.436 141.123 143.787 136.572 139.207 127.093H139.207Z" fill="url(#paint9_linear_108_230)"/>
<path d="M205.793 323.043C181.553 312.693 153.995 298.097 155.036 264.936C156.452 221.264 195.762 229.895 195.762 229.895C194.278 230.257 190.312 233.081 188.907 236.091C187.421 239.855 184.711 248.355 192.922 257.263C205.817 271.236 166.431 290.414 227.223 326.644C228.756 327.478 212.973 326.146 205.794 323.043H205.793Z" fill="url(#paint10_linear_108_230)"/>
<path d="M197.182 301.279C214.371 307.261 234.395 306.212 246.383 299.59C254.409 295.123 264.705 287.967 271.04 289.733C265.555 287.565 261.401 286.552 256.403 286.305C255.552 286.305 254.532 286.287 253.606 286.193C251.775 286.188 249.946 286.288 248.128 286.493C245.033 286.778 241.603 288.73 238.485 288.417C238.317 288.4 241.51 287.105 241.25 287.163C239.598 287.508 237.803 287.582 235.907 287.817C234.701 287.952 233.665 288.102 232.468 288.152C196.666 291.188 166.407 268.748 166.407 268.748C163.832 277.422 177.938 294.579 197.182 301.279H197.182Z" fill="url(#paint11_linear_108_230)"/>
<path d="M367.069 351.392C403.282 315.838 421.603 272.619 413.858 224.144C413.858 224.144 416.952 249.001 405.219 274.425C410.856 249.604 411.512 218.76 396.536 186.819C376.549 144.186 343.676 121.753 331.126 112.394C312.111 98.2132 304.228 83.7751 304.086 80.7957C298.406 92.4341 281.222 132.318 302.24 166.667C321.931 198.847 352.951 208.399 374.667 237.918C414.673 292.298 367.069 351.392 367.069 351.392Z" fill="url(#paint12_linear_108_230)"/>
<path d="M361.881 258.883C349.225 232.739 333.43 221.336 318.488 208.977C320.227 211.41 320.655 212.27 321.617 213.844C334.768 227.86 354.16 262.048 340.081 304.967C313.58 385.754 207.574 347.711 196.461 337.025C200.957 383.781 279.216 406.155 330.17 375.834C359.164 348.387 382.62 301.727 361.881 258.883Z" fill="url(#paint13_linear_108_230)"/>
<defs>
<radialGradient id="paint0_radial_108_230" cx="0" cy="0" r="1" gradientUnits="userSpaceOnUse" gradientTransform="translate(399.906 158.287) rotate(2.55481) scale(119.562 175.734)">
<stop offset="0.045" stop-color="#FFEA00"/>
<stop offset="0.12" stop-color="#FFDE00"/>
<stop offset="0.254" stop-color="#FFBF00"/>
<stop offset="0.429" stop-color="#FF8E00"/>
<stop offset="0.769" stop-color="#FF272D"/>
<stop offset="0.872" stop-color="#E0255A"/>
<stop offset="0.953" stop-color="#CC2477"/>
<stop offset="1" stop-color="#C42482"/>
</radialGradient>
<radialGradient id="paint1_radial_108_230" cx="0" cy="0" r="1" gradientUnits="userSpaceOnUse" gradientTransform="translate(314.705 139.839) scale(336.968)">
<stop stop-color="#00CCDA"/>
<stop offset="0.22" stop-color="#0083FF"/>
<stop offset="0.261" stop-color="#007AF9"/>
<stop offset="0.33" stop-color="#0060E8"/>
<stop offset="0.333" stop-color="#005FE7"/>
<stop offset="0.438" stop-color="#2639AD"/>
<stop offset="0.522" stop-color="#401E84"/>
<stop offset="0.566" stop-color="#4A1475"/>
</radialGradient>
<linearGradient id="paint2_linear_108_230" x1="272.135" y1="326.202" x2="205.58" y2="108.49" gradientUnits="userSpaceOnUse">
<stop stop-color="#000F43" stop-opacity="0.4"/>
<stop offset="0.485" stop-color="#001962" stop-opacity="0.173"/>
<stop offset="1" stop-color="#002079" stop-opacity="0"/>
</linearGradient>
<radialGradient id="paint3_radial_108_230" cx="0" cy="0" r="1" gradientUnits="userSpaceOnUse" gradientTransform="translate(429.292 293.614) rotate(5.76178) scale(113.679)">
<stop offset="0.003" stop-color="#FFEA00"/>
<stop offset="0.497" stop-color="#FF272D"/>
<stop offset="1" stop-color="#C42482"/>
</radialGradient>
<radialGradient id="paint4_radial_108_230" cx="0" cy="0" r="1" gradientUnits="userSpaceOnUse" gradientTransform="translate(430.002 184.128) rotate(5.76178) scale(189.834)">
<stop offset="0.003" stop-color="#FFE900"/>
<stop offset="0.157" stop-color="#FFAF0E"/>
<stop offset="0.316" stop-color="#FF7A1B"/>
<stop offset="0.472" stop-color="#FF4E26"/>
<stop offset="0.621" stop-color="#FF2C2E"/>
<stop offset="0.762" stop-color="#FF1434"/>
<stop offset="0.892" stop-color="#FF0538"/>
<stop offset="1" stop-color="#FF0039"/>
</radialGradient>
<radialGradient id="paint5_radial_108_230" cx="0" cy="0" r="1" gradientUnits="userSpaceOnUse" gradientTransform="translate(439.049 361.908) rotate(5.76178) scale(174.194 174.194)">
<stop offset="0.003" stop-color="#FF272D"/>
<stop offset="0.497" stop-color="#C42482"/>
<stop offset="0.986" stop-color="#620700"/>
</radialGradient>
<radialGradient id="paint6_radial_108_230" cx="0" cy="0" r="1" gradientUnits="userSpaceOnUse" gradientTransform="translate(332.808 209.686) scale(271.93)">
<stop offset="0.156" stop-color="#FFEA00"/>
<stop offset="0.231" stop-color="#FFDE00"/>
<stop offset="0.365" stop-color="#FFBF00"/>
<stop offset="0.541" stop-color="#FF8E00"/>
<stop offset="0.763" stop-color="#FF272D"/>
<stop offset="0.796" stop-color="#F92433"/>
<stop offset="0.841" stop-color="#E91C45"/>
<stop offset="0.893" stop-color="#CF0E62"/>
<stop offset="0.935" stop-color="#B5007F"/>
</radialGradient>
<radialGradient id="paint7_radial_108_230" cx="0" cy="0" r="1" gradientUnits="userSpaceOnUse" gradientTransform="translate(312.348 73.1434) scale(321.101)">
<stop offset="0.279" stop-color="#FFEA00"/>
<stop offset="0.402" stop-color="#FFDD00"/>
<stop offset="0.63" stop-color="#FFBA00"/>
<stop offset="0.856" stop-color="#FF9100"/>
<stop offset="0.933" stop-color="#FF6711"/>
<stop offset="0.994" stop-color="#FF4A1D"/>
</radialGradient>
<linearGradient id="paint8_linear_108_230" x1="146.433" y1="196.068" x2="270.043" y2="177.51" gradientUnits="userSpaceOnUse">
<stop stop-color="#C42482" stop-opacity="0.5"/>
<stop offset="0.474" stop-color="#FF272D" stop-opacity="0.5"/>
<stop offset="0.486" stop-color="#FF2C2C" stop-opacity="0.513"/>
<stop offset="0.675" stop-color="#FF7A1A" stop-opacity="0.72"/>
<stop offset="0.829" stop-color="#FFB20D" stop-opacity="0.871"/>
<stop offset="0.942" stop-color="#FFD605" stop-opacity="0.964"/>
<stop offset="1" stop-color="#FFE302"/>
</linearGradient>
<linearGradient id="paint9_linear_108_230" x1="134.1" y1="163.042" x2="120.085" y2="112.769" gradientUnits="userSpaceOnUse">
<stop stop-color="#891551" stop-opacity="0.6"/>
<stop offset="1" stop-color="#C42482" stop-opacity="0"/>
</linearGradient>
<linearGradient id="paint10_linear_108_230" x1="160.821" y1="235.734" x2="189.659" y2="275.98" gradientUnits="userSpaceOnUse">
<stop offset="0.005" stop-color="#891551" stop-opacity="0.5"/>
<stop offset="0.484" stop-color="#FF272D" stop-opacity="0.5"/>
<stop offset="1" stop-color="#FF272D" stop-opacity="0"/>
</linearGradient>
<linearGradient id="paint11_linear_108_230" x1="215.958" y1="306.193" x2="218.581" y2="280.327" gradientUnits="userSpaceOnUse">
<stop stop-color="#C42482"/>
<stop offset="0.083" stop-color="#C42482" stop-opacity="0.81"/>
<stop offset="0.206" stop-color="#C42482" stop-opacity="0.565"/>
<stop offset="0.328" stop-color="#C42482" stop-opacity="0.362"/>
<stop offset="0.447" stop-color="#C42482" stop-opacity="0.204"/>
<stop offset="0.562" stop-color="#C42482" stop-opacity="0.091"/>
<stop offset="0.673" stop-color="#C42482" stop-opacity="0.023"/>
<stop offset="0.773" stop-color="#C42482" stop-opacity="0"/>
</linearGradient>
<linearGradient id="paint12_linear_108_230" x1="299.899" y1="85.2526" x2="406.163" y2="322.874" gradientUnits="userSpaceOnUse">
<stop stop-color="#FFF14F"/>
<stop offset="0.268" stop-color="#FFEE4C"/>
<stop offset="0.452" stop-color="#FFE643"/>
<stop offset="0.612" stop-color="#FFD834"/>
<stop offset="0.757" stop-color="#FFC41E"/>
<stop offset="0.892" stop-color="#FFAB02"/>
<stop offset="0.902" stop-color="#FFA900"/>
<stop offset="0.949" stop-color="#FFA000"/>
<stop offset="1" stop-color="#FF9100"/>
</linearGradient>
<linearGradient id="paint13_linear_108_230" x1="320.882" y1="221.913" x2="270.546" y2="357.064" gradientUnits="userSpaceOnUse">
<stop stop-color="#FF8E00"/>
<stop offset="0.04" stop-color="#FF8E00" stop-opacity="0.858"/>
<stop offset="0.084" stop-color="#FF8E00" stop-opacity="0.729"/>
<stop offset="0.13" stop-color="#FF8E00" stop-opacity="0.628"/>
<stop offset="0.178" stop-color="#FF8E00" stop-opacity="0.557"/>
<stop offset="0.227" stop-color="#FF8E00" stop-opacity="0.514"/>
<stop offset="0.282" stop-color="#FF8E00" stop-opacity="0.5"/>
<stop offset="0.389" stop-color="#FF8E00" stop-opacity="0.478"/>
<stop offset="0.524" stop-color="#FF8E00" stop-opacity="0.416"/>
<stop offset="0.676" stop-color="#FF8E00" stop-opacity="0.314"/>
<stop offset="0.838" stop-color="#FF8E00" stop-opacity="0.172"/>
<stop offset="1" stop-color="#FF8E00" stop-opacity="0"/>
</linearGradient>
</defs>
</svg>
