<svg width="500" height="500" viewBox="0 0 500 500" fill="none" xmlns="http://www.w3.org/2000/svg">
<rect width="500" height="500" fill="#FF3344"/>
<g clip-path="url(#clip0_107_143)">
<path fill-rule="evenodd" clip-rule="evenodd" d="M114.02 195H137.29C137.579 195 137.854 195.128 138.041 195.35C138.23 195.571 138.311 195.863 138.262 196.15L121.132 300.008C121.057 300.465 120.675 300.807 120.214 300.834L94.6284 302.298C94.6098 302.299 94.5921 302.3 94.5726 302.3C94.2937 302.3 94.0259 302.182 93.839 301.972C93.6381 301.747 93.5498 301.444 93.6 301.148L108.054 214.333C107.751 201.399 91.8264 198.271 89.8832 197.787C87.7862 197.264 88.0067 195 88.0067 195H114.02ZM238.688 195.468C238.512 195.178 238.199 195 237.861 195H212.758C212.397 195 212.069 195.202 211.901 195.521L177.26 262.1L165.468 195.802C165.385 195.337 164.985 195 164.517 195H139.242C138.955 195 138.681 195.129 138.498 195.353C138.315 195.575 138.24 195.869 138.293 196.154L157.007 295.861C157.093 296.322 157.493 296.653 157.955 296.653C157.973 296.653 157.992 296.652 158.01 296.651L187.186 294.974C187.526 294.955 187.832 294.757 187.989 294.453L238.718 196.422C238.874 196.12 238.863 195.759 238.688 195.468ZM316.873 216.507C316.549 213.495 315.861 210.82 314.826 208.552C313.787 206.283 312.48 204.34 310.943 202.775C309.424 201.237 307.829 199.955 306.183 198.952C302.195 196.657 297.456 195.329 292.037 195H244.082C243.621 195 243.227 195.338 243.151 195.798L227.668 289.892C227.62 290.178 227.706 290.471 227.897 290.688C228.075 290.891 228.331 291.005 228.598 291.005C228.617 291.005 228.633 291.004 228.652 291.004L252.761 289.608C253.201 289.582 253.566 289.25 253.638 288.808L256.519 271.078L279.988 271.076C285.327 270.751 290.367 269.431 294.967 267.153C298.946 265.189 302.827 262.025 306.505 257.753C310.217 253.44 312.805 247.302 314.191 239.506L316.395 226.895C317.033 222.996 317.196 219.501 316.873 216.507ZM289.069 238.992C288.782 240.443 288.255 241.713 287.493 242.777C286.832 243.734 285.938 244.589 284.839 245.316C283.796 246.007 282.355 246.357 280.56 246.357H260.441L264.696 219.561H285.119C286.863 219.561 288.133 219.91 288.894 220.594C289.724 221.343 290.328 222.19 290.68 223.077C291.05 224.115 291.19 225.381 291.107 226.74L289.069 238.992ZM411.043 195H386.649C386.182 195 385.782 195.356 385.705 195.841L377.014 250.716L358.172 195.665C358.034 195.267 357.676 195 357.272 195H332.877C332.411 195 332.011 195.356 331.934 195.841L317.048 289.832C316.999 290.133 317.085 290.442 317.279 290.671C317.46 290.885 317.72 291.005 317.99 291.005C318.009 291.005 342.813 289.513 342.813 289.513C343.26 289.486 343.629 289.137 343.702 288.671L349.925 249.009L363.068 287.571C363.211 287.993 363.596 288.248 364.022 288.237L397.097 286.245C397.543 286.219 397.912 285.871 397.985 285.405L411.987 196.172C412.034 195.879 411.955 195.581 411.772 195.356C411.591 195.13 411.324 195 411.043 195Z" fill="black"/>
</g>
<defs>
<clipPath id="clip0_107_143">
<rect width="324" height="111" fill="white" transform="translate(88 195)"/>
</clipPath>
</defs>
</svg>
