<svg width="500" height="500" viewBox="0 0 500 500" fill="none" xmlns="http://www.w3.org/2000/svg">
<rect width="500" height="500" fill="#484961"/>
<path d="M307.375 233.018H192.807V198.563C204.432 152.48 250.092 151.846 250.092 151.846C250.092 151.846 295.75 152.48 307.375 198.563V233.018ZM250.092 108.513C250.092 108.513 166.435 105.766 149.182 198.563V261.765C149.182 261.765 149.896 268.53 168.92 282.271C187.944 296.009 237.197 334.693 250.092 334.693C262.985 334.693 312.238 296.009 331.262 282.271C350.286 268.53 351 261.765 351 261.765V198.563C333.745 105.766 250.092 108.513 250.092 108.513Z" fill="white"/>
<path d="M250.092 348.926C250.092 348.926 237.127 347.656 226.979 340.61C216.833 333.566 149.182 285.229 149.182 285.229V380.915C149.182 380.915 149.755 392.048 162.016 392.048C174.275 392.048 250.092 392.048 250.092 392.048C250.092 392.048 325.907 392.048 338.166 392.048C350.427 392.048 351 380.915 351 380.915V285.229C351 285.229 283.349 333.566 273.201 340.61C263.055 347.656 250.092 348.926 250.092 348.926Z" fill="white"/>
</svg>
