<svg width="500" height="500" viewBox="0 0 500 500" fill="none" xmlns="http://www.w3.org/2000/svg">
<rect width="500" height="500" fill="black"/>
<path d="M142 222.274V304.891H126.25V274.611C122.375 279.097 116.875 282.212 109 282.212C92.875 282.212 80.625 269.003 80.625 251.433C80.625 233.863 92.875 220.654 109 220.654C117 220.654 122.75 223.894 126.5 228.629V222.15H142V222.274ZM127 251.433C127 242.212 120.875 235.358 111.875 235.358C102.625 235.358 96.75 242.586 96.75 251.433C96.75 260.405 102.625 267.508 111.875 267.508C120.875 267.632 127 260.779 127 251.433Z" fill="white"/>
<path d="M151.375 255.794V222.274H167.125V254.424C167.125 263.77 172.25 267.632 179.125 267.632C185.875 267.632 191.125 263.77 191.125 254.424V222.274H206.875V255.794C206.875 274.237 193.75 282.212 179.125 282.212C164.5 282.212 151.375 274.361 151.375 255.794Z" fill="white"/>
<path d="M277.125 222.274V280.717H261.625V274.237C257.75 278.972 252.125 282.212 244.125 282.212C228 282.212 215.75 269.003 215.75 251.433C215.75 233.863 228 220.654 244.125 220.654C252.125 220.654 257.875 223.894 261.625 228.629V222.15H277.125V222.274ZM262.25 251.433C262.25 242.212 256.125 235.358 247.125 235.358C237.875 235.358 232 242.586 232 251.433C232 260.405 237.875 267.508 247.125 267.508C256.125 267.632 262.25 260.779 262.25 251.433Z" fill="white"/>
<path d="M347.375 193.863V280.841H331.875V274.361C328 279.097 322.375 282.337 314.375 282.337C298.25 282.337 286 269.128 286 251.558C286 233.988 298.25 220.779 314.375 220.779C322.25 220.779 327.875 223.894 331.625 228.38V193.863H347.375ZM332.375 251.433C332.375 242.212 326.25 235.358 317.25 235.358C308 235.358 302.125 242.586 302.125 251.433C302.125 260.405 308 267.508 317.25 267.508C326.25 267.633 332.375 260.779 332.375 251.433Z" fill="white"/>
<path d="M419.875 247.321C419.875 255.047 417 262.025 411.875 269.626L388.375 304.891H368.875L389.75 275.358C388.5 275.483 387.25 275.608 385.625 275.608C368.625 275.608 356.375 263.396 356.375 247.57C356.375 231.122 370 218.785 388.125 218.785C406.25 218.785 419.875 230.997 419.875 247.321ZM403.125 247.446C403.125 239.097 396.75 233.365 388.125 233.365C379.5 233.365 373.125 239.221 373.125 247.446C373.125 255.67 379.5 261.402 388.125 261.402C396.75 261.527 403.125 255.794 403.125 247.446Z" fill="#DC205E"/>
</svg>
