<svg width="500" height="500" viewBox="0 0 500 500" fill="none" xmlns="http://www.w3.org/2000/svg">
<rect width="500" height="500" fill="white"/>
<g opacity="0.53" filter="url(#filter0_f_108_284)">
<path d="M412.36 255.621C412.36 276.149 408.16 296.476 400.001 315.441C391.841 334.407 379.882 351.639 364.806 366.155C349.729 380.67 331.831 392.185 312.132 400.04C292.434 407.896 271.321 411.94 250 411.94C228.679 411.94 207.566 407.896 187.868 400.04C168.169 392.185 150.271 380.67 135.194 366.155C120.118 351.639 108.159 334.407 99.9992 315.441C91.8399 296.476 87.6403 276.149 87.6403 255.621C87.6403 214.162 104.746 174.402 135.194 145.086C165.643 115.771 206.94 99.3018 250 99.3018C271.321 99.3018 292.434 103.345 312.132 111.201C331.831 119.057 349.729 130.571 364.806 145.086C379.882 159.602 391.841 176.835 400.001 195.8C408.16 214.765 412.36 235.093 412.36 255.621Z" fill="black"/>
</g>
<path d="M418.543 241.822C418.543 263.952 414.183 285.865 405.713 306.311C397.243 326.756 384.828 345.334 369.178 360.982C353.527 376.63 334.947 389.043 314.499 397.512C294.05 405.981 272.133 410.34 250 410.34C205.3 410.34 162.43 392.585 130.822 360.982C99.2145 329.379 81.4574 286.516 81.4574 241.822C81.4574 197.128 99.2145 154.265 130.822 122.662C162.43 91.0585 205.3 73.304 250 73.304C272.133 73.304 294.05 77.6628 314.499 86.1316C334.947 94.6004 353.527 107.013 369.178 122.662C384.828 138.31 397.243 156.887 405.713 177.333C414.183 197.778 418.543 219.692 418.543 241.822Z" fill="url(#paint0_linear_108_284)" stroke="#CDCDCD" stroke-width="0.0930123" stroke-linecap="round" stroke-linejoin="round"/>
<path d="M405.336 241.822C405.336 283.013 388.97 322.518 359.839 351.645C330.708 380.772 291.198 397.135 250 397.135C208.802 397.135 169.292 380.772 140.161 351.645C111.03 322.518 94.6642 283.013 94.6642 241.822C94.6642 200.63 111.03 161.126 140.161 131.999C169.292 102.872 208.802 86.5089 250 86.5089C291.198 86.5089 330.708 102.872 359.839 131.999C388.97 161.126 405.336 200.63 405.336 241.822Z" fill="url(#paint1_radial_108_284)"/>
<path d="M250 94.6084C248.745 94.6084 247.735 95.6182 247.735 96.8728V122.992C247.735 124.246 248.745 125.256 250 125.256C251.255 125.256 252.265 124.246 252.265 122.992V96.8728C252.265 95.6182 251.255 94.6084 250 94.6084ZM235.184 95.5447C235.034 95.5285 234.88 95.5285 234.724 95.5466C233.476 95.6768 232.576 96.786 232.706 98.0337L233.848 108.961C233.978 110.209 235.088 111.108 236.335 110.978C237.583 110.848 238.483 109.738 238.353 108.491L237.212 97.5638C237.098 96.472 236.234 95.6466 235.184 95.5447H235.184ZM264.919 95.5554C263.869 95.6566 263.005 96.4818 262.89 97.5734L261.741 108.5C261.61 109.747 262.51 110.858 263.757 110.989C265.005 111.12 266.115 110.221 266.246 108.974L267.395 98.0465C267.527 96.7989 266.627 95.6895 265.379 95.5583C265.223 95.5422 265.07 95.5422 264.919 95.5555V95.5554ZM219.965 97.7513C219.814 97.7525 219.661 97.7675 219.507 97.7998C218.28 98.0596 217.501 99.2571 217.761 100.484L223.171 126.037C223.431 127.264 224.628 128.043 225.856 127.783C227.083 127.523 227.862 126.327 227.602 125.099L222.192 99.5462C221.965 98.4723 221.02 97.7417 219.965 97.7499L219.965 97.7513ZM280.138 97.7729C279.083 97.7622 278.138 98.4934 277.91 99.5672L272.481 125.116C272.22 126.344 272.999 127.541 274.226 127.802C275.453 128.063 276.651 127.284 276.912 126.058L282.34 100.508C282.601 99.2811 281.823 98.0833 280.596 97.8227C280.442 97.7904 280.289 97.7742 280.138 97.7742L280.138 97.7729ZM205.44 101.846C205.147 101.819 204.844 101.852 204.545 101.951C203.352 102.338 202.703 103.61 203.091 104.803L206.487 115.252C206.875 116.446 208.148 117.094 209.341 116.707C210.534 116.319 211.182 115.046 210.794 113.853L207.399 103.404C207.108 102.509 206.319 101.921 205.44 101.846V101.846ZM294.581 101.852C293.701 101.926 292.913 102.515 292.622 103.409L289.224 113.858C288.836 115.051 289.485 116.323 290.678 116.711C291.871 117.099 293.144 116.451 293.532 115.258L296.929 104.809C297.317 103.616 296.669 102.343 295.476 101.955C295.178 101.858 294.874 101.827 294.581 101.851V101.852ZM191.076 107.102C190.782 107.107 190.484 107.171 190.198 107.299C189.052 107.808 188.539 109.141 189.048 110.288L199.658 134.155C200.168 135.301 201.501 135.814 202.647 135.304C203.793 134.795 204.307 133.462 203.798 132.316L193.187 108.448C192.805 107.588 191.959 107.084 191.076 107.102ZM309.106 107.182C308.224 107.166 307.378 107.666 306.994 108.525L296.352 132.378C295.841 133.524 296.352 134.858 297.497 135.369C298.643 135.88 299.977 135.369 300.488 134.223L311.131 110.371C311.642 109.225 311.131 107.891 309.985 107.38C309.699 107.253 309.401 107.188 309.106 107.182V107.182ZM177.744 114.155C177.31 114.122 176.861 114.219 176.454 114.455C175.367 115.082 174.998 116.462 175.625 117.548L181.119 127.063C181.747 128.149 183.126 128.519 184.213 127.892C185.3 127.264 185.669 125.885 185.042 124.798L179.548 115.284C179.155 114.605 178.469 114.205 177.744 114.155V114.155ZM322.256 114.155C321.531 114.203 320.845 114.604 320.453 115.283L314.958 124.798C314.331 125.885 314.702 127.264 315.788 127.891C316.875 128.519 318.254 128.149 318.882 127.063L324.376 117.548C325.003 116.461 324.634 115.082 323.547 114.455C323.14 114.22 322.691 114.124 322.256 114.155V114.155ZM164.798 122.228C164.362 122.244 163.926 122.384 163.545 122.66C162.53 123.397 162.305 124.807 163.042 125.823L178.381 146.964C179.118 147.98 180.529 148.204 181.545 147.468C182.56 146.731 182.785 145.321 182.048 144.305L166.708 123.164C166.248 122.529 165.524 122.203 164.798 122.228V122.228ZM335.364 122.343C334.638 122.316 333.915 122.642 333.453 123.276L318.085 144.397C317.347 145.411 317.57 146.822 318.584 147.56C319.599 148.298 321.01 148.076 321.748 147.062L337.116 125.941C337.854 124.926 337.63 123.515 336.616 122.777C336.236 122.501 335.8 122.359 335.364 122.343ZM153.226 131.931C152.648 131.899 152.058 132.092 151.592 132.512C150.66 133.351 150.585 134.777 151.424 135.71L158.777 143.876C159.616 144.808 161.042 144.883 161.975 144.044C162.907 143.204 162.982 141.777 162.143 140.845L154.791 132.68C154.372 132.213 153.805 131.961 153.226 131.931V131.931ZM346.79 131.947C346.212 131.98 345.645 132.23 345.225 132.696L337.873 140.86C337.034 141.793 337.108 143.22 338.041 144.059C338.973 144.898 340.399 144.823 341.239 143.891L348.592 135.727C349.432 134.795 349.356 133.368 348.424 132.528C347.958 132.109 347.369 131.917 346.791 131.948L346.79 131.947ZM142.135 142.583C141.557 142.616 140.991 142.866 140.571 143.332C139.732 144.264 139.807 145.69 140.739 146.53L160.154 164.004C161.087 164.844 162.513 164.769 163.352 163.837C164.192 162.904 164.118 161.478 163.185 160.639L143.769 143.164C143.303 142.744 142.713 142.553 142.135 142.584L142.135 142.583ZM357.935 142.66C357.357 142.627 356.766 142.82 356.3 143.239L336.873 160.7C335.94 161.539 335.863 162.965 336.702 163.898C337.541 164.831 338.968 164.907 339.901 164.068L359.329 146.607C360.262 145.768 360.338 144.342 359.499 143.409C359.079 142.943 358.513 142.69 357.935 142.66H357.935ZM132.912 154.441C132.186 154.414 131.462 154.741 131.002 155.375C130.264 156.39 130.488 157.8 131.503 158.538L140.393 164.996C141.408 165.733 142.818 165.51 143.556 164.495C144.293 163.48 144.07 162.069 143.055 161.332L134.165 154.874C133.785 154.597 133.348 154.456 132.912 154.441L132.912 154.441ZM367.149 154.523C366.713 154.539 366.277 154.679 365.896 154.955L357.003 161.407C355.987 162.144 355.762 163.555 356.499 164.571C357.236 165.586 358.646 165.81 359.662 165.073L368.557 158.621C369.572 157.885 369.796 156.474 369.059 155.459C368.599 154.824 367.875 154.499 367.149 154.523V154.523ZM124.293 167.089C123.569 167.138 122.883 167.539 122.491 168.218C121.864 169.304 122.233 170.684 123.32 171.311L145.943 184.371C147.029 184.998 148.409 184.628 149.036 183.542C149.664 182.455 149.294 181.076 148.207 180.449L125.585 167.389C125.177 167.154 124.728 167.059 124.293 167.089V167.089ZM375.707 167.089C375.272 167.057 374.823 167.154 374.416 167.389L351.793 180.449C350.706 181.076 350.337 182.456 350.964 183.542C351.591 184.629 352.971 184.998 354.057 184.371L376.681 171.311C377.768 170.684 378.137 169.305 377.51 168.218C377.118 167.539 376.431 167.14 375.707 167.089V167.089ZM117.777 180.571C116.894 180.549 116.048 181.055 115.665 181.914C115.153 183.059 115.664 184.393 116.81 184.904L126.846 189.38C127.992 189.891 129.326 189.381 129.837 188.235C130.349 187.089 129.837 185.755 128.691 185.244L118.656 180.768C118.369 180.64 118.071 180.577 117.777 180.571ZM382.267 180.664C381.973 180.669 381.674 180.734 381.387 180.861L371.349 185.33C370.203 185.84 369.69 187.173 370.201 188.319C370.711 189.465 372.045 189.978 373.192 189.467L383.23 184.998C384.376 184.488 384.888 183.155 384.378 182.009C383.995 181.149 383.15 180.646 382.267 180.664ZM111.969 194.662C111.089 194.735 110.301 195.323 110.009 196.218C109.621 197.41 110.267 198.684 111.461 199.072L136.298 207.164C137.491 207.553 138.765 206.905 139.153 205.713C139.542 204.52 138.895 203.247 137.702 202.858L112.864 194.766C112.566 194.669 112.262 194.637 111.969 194.662V194.662ZM388.064 194.759C387.771 194.732 387.468 194.764 387.17 194.863L362.327 202.937C361.133 203.325 360.485 204.598 360.873 205.791C361.261 206.984 362.534 207.632 363.727 207.244L388.57 199.17C389.763 198.782 390.412 197.509 390.024 196.316C389.733 195.421 388.944 194.833 388.064 194.758V194.759ZM108.351 209.453C107.295 209.442 106.349 210.175 106.121 211.248C105.86 212.475 106.639 213.673 107.866 213.934L118.615 216.218C119.842 216.479 121.04 215.7 121.3 214.473C121.561 213.246 120.783 212.049 119.556 211.788L108.808 209.504C108.655 209.472 108.501 209.455 108.351 209.455V209.453ZM391.654 209.475C391.504 209.476 391.352 209.496 391.198 209.523L380.449 211.806C379.222 212.067 378.444 213.264 378.705 214.491C378.966 215.718 380.163 216.497 381.391 216.236L392.138 213.953C393.366 213.692 394.145 212.495 393.884 211.268C393.656 210.194 392.71 209.463 391.655 209.472L391.654 209.475ZM105.612 224.331C104.561 224.432 103.697 225.256 103.582 226.348C103.45 227.595 104.347 228.706 105.595 228.838L131.573 231.584C132.821 231.716 133.932 230.817 134.064 229.57C134.196 228.322 133.297 227.211 132.049 227.08L106.071 224.333C105.915 224.317 105.762 224.317 105.612 224.331V224.331ZM394.413 224.527C394.263 224.511 394.108 224.511 393.952 224.529L367.971 227.24C366.723 227.37 365.824 228.479 365.954 229.727C366.084 230.975 367.193 231.874 368.441 231.744L394.422 229.033C395.67 228.903 396.57 227.793 396.44 226.546C396.326 225.454 395.463 224.629 394.413 224.527L394.413 224.527ZM105.172 239.561C103.917 239.561 102.907 240.571 102.907 241.826C102.907 243.08 103.917 244.09 105.172 244.09H116.16C117.415 244.09 118.426 243.08 118.426 241.826C118.426 240.571 117.415 239.561 116.16 239.561H105.172ZM383.84 239.561C382.585 239.561 381.575 240.571 381.575 241.826C381.575 243.08 382.585 244.09 383.84 244.09H394.828C396.083 244.09 397.093 243.08 397.093 241.826C397.093 240.571 396.083 239.561 394.828 239.561H383.84ZM132.019 251.905C131.869 251.889 131.716 251.889 131.559 251.907L105.577 254.618C104.329 254.748 103.43 255.858 103.56 257.106C103.69 258.353 104.8 259.253 106.047 259.123L132.03 256.412C133.278 256.281 134.177 255.172 134.047 253.924C133.933 252.833 133.069 252.007 132.019 251.905H132.019ZM367.967 252.066C366.917 252.166 366.053 252.99 365.937 254.082C365.805 255.329 366.703 256.44 367.951 256.572L393.929 259.318C395.177 259.45 396.288 258.552 396.419 257.304C396.551 256.057 395.653 254.946 394.405 254.814L368.428 252.068C368.272 252.052 368.117 252.052 367.967 252.066L367.967 252.066ZM119.068 267.363C118.917 267.365 118.764 267.379 118.611 267.412L107.862 269.695C106.635 269.955 105.856 271.153 106.117 272.38C106.378 273.607 107.576 274.385 108.803 274.125L119.552 271.843C120.779 271.582 121.557 270.384 121.297 269.157C121.069 268.083 120.123 267.353 119.068 267.362L119.068 267.363ZM380.929 267.385C379.874 267.374 378.929 268.105 378.701 269.179C378.44 270.406 379.217 271.604 380.444 271.865L391.193 274.149C392.42 274.41 393.618 273.632 393.879 272.405C394.14 271.178 393.361 269.979 392.134 269.719L381.387 267.435C381.233 267.402 381.08 267.386 380.929 267.386L380.929 267.385ZM137.168 276.304C136.875 276.277 136.572 276.309 136.274 276.408L111.43 284.482C110.237 284.87 109.589 286.143 109.977 287.336C110.365 288.529 111.638 289.177 112.831 288.789L137.674 280.715C138.867 280.327 139.516 279.054 139.128 277.861C138.837 276.966 138.048 276.378 137.168 276.303V276.304ZM362.808 276.384C361.928 276.457 361.139 277.045 360.848 277.94C360.459 279.132 361.106 280.406 362.299 280.794L387.137 288.886C388.33 289.275 389.603 288.627 389.992 287.435C390.381 286.242 389.734 284.969 388.54 284.58L363.703 276.488C363.405 276.391 363.101 276.359 362.808 276.384V276.384ZM127.688 293.989C127.394 293.994 127.096 294.057 126.809 294.185L116.77 298.654C115.624 299.164 115.112 300.498 115.622 301.644C116.133 302.79 117.466 303.301 118.613 302.791L128.652 298.323C129.798 297.813 130.31 296.479 129.799 295.333C129.417 294.474 128.571 293.971 127.688 293.988V293.989ZM372.276 294.075C371.393 294.053 370.547 294.558 370.164 295.417C369.652 296.563 370.163 297.897 371.309 298.408L381.344 302.884C382.49 303.395 383.824 302.884 384.335 301.738C384.847 300.593 384.336 299.259 383.19 298.748L373.155 294.272C372.868 294.144 372.57 294.08 372.276 294.075V294.075ZM147.234 298.982C146.799 298.949 146.35 299.046 145.943 299.282L123.32 312.341C122.233 312.969 121.864 314.348 122.491 315.434C123.118 316.521 124.498 316.89 125.585 316.263L148.207 303.205C149.294 302.577 149.663 301.197 149.036 300.111C148.644 299.432 147.958 299.032 147.234 298.982V298.982ZM352.767 298.982C352.043 299.03 351.356 299.431 350.964 300.11C350.337 301.197 350.706 302.577 351.793 303.204L374.416 316.263C375.502 316.89 376.883 316.521 377.51 315.434C378.137 314.348 377.768 312.968 376.681 312.341L354.057 299.282C353.65 299.047 353.202 298.951 352.767 298.981V298.982ZM141.591 318.146C141.155 318.162 140.719 318.303 140.338 318.579L131.444 325.031C130.429 325.768 130.204 327.178 130.941 328.194C131.677 329.209 133.088 329.434 134.104 328.697L142.998 322.245C144.014 321.508 144.239 320.098 143.502 319.082C143.041 318.448 142.317 318.121 141.591 318.146V318.146ZM358.355 318.223C357.629 318.196 356.905 318.523 356.444 319.157C355.707 320.172 355.931 321.583 356.946 322.32L365.836 328.778C366.851 329.516 368.261 329.292 368.999 328.277C369.736 327.262 369.513 325.852 368.498 325.114L359.609 318.656C359.228 318.38 358.791 318.238 358.356 318.222L358.355 318.223ZM161.734 319.004C161.156 318.972 160.566 319.165 160.1 319.584L140.672 337.045C139.739 337.884 139.663 339.31 140.502 340.243C141.341 341.176 142.767 341.252 143.7 340.413L163.128 322.952C164.061 322.113 164.137 320.687 163.298 319.754C162.879 319.288 162.312 319.035 161.734 319.004ZM338.212 319.067C337.634 319.099 337.067 319.349 336.647 319.815C335.808 320.748 335.883 322.174 336.815 323.013L356.23 340.488C357.163 341.327 358.59 341.252 359.429 340.32C360.269 339.388 360.194 337.962 359.261 337.122L339.846 319.648C339.379 319.228 338.79 319.037 338.212 319.067V319.067ZM180.164 335.655C179.438 335.628 178.714 335.953 178.252 336.588L162.885 357.709C162.147 358.723 162.369 360.134 163.384 360.872C164.398 361.61 165.809 361.388 166.548 360.374L181.915 339.252C182.653 338.238 182.431 336.827 181.417 336.089C181.036 335.812 180.6 335.67 180.164 335.655ZM319.71 335.75C319.274 335.766 318.837 335.906 318.457 336.182C317.441 336.919 317.216 338.329 317.953 339.344L333.292 360.486C334.028 361.502 335.439 361.726 336.455 360.99C337.47 360.253 337.695 358.843 336.958 357.827L321.619 336.686C321.159 336.051 320.436 335.726 319.71 335.75V335.75ZM160.326 339.012C159.748 339.044 159.181 339.295 158.762 339.761L151.409 347.925C150.57 348.857 150.644 350.284 151.577 351.124C152.509 351.963 153.935 351.888 154.775 350.955L162.128 342.791C162.968 341.859 162.892 340.432 161.96 339.592C161.494 339.173 160.905 338.982 160.327 339.012L160.326 339.012ZM339.66 339.023C339.082 338.991 338.493 339.184 338.027 339.603C337.094 340.443 337.019 341.869 337.858 342.801L345.21 350.967C346.049 351.9 347.475 351.975 348.408 351.135C349.34 350.296 349.415 348.869 348.576 347.937L341.224 339.771C340.805 339.305 340.238 339.053 339.66 339.023L339.66 339.023ZM201.624 348.08C200.741 348.059 199.896 348.564 199.513 349.423L188.869 373.276C188.358 374.422 188.869 375.755 190.015 376.266C191.161 376.778 192.495 376.267 193.006 375.121L203.649 351.268C204.16 350.123 203.649 348.789 202.504 348.278C202.217 348.15 201.918 348.086 201.624 348.08ZM298.233 348.146C297.938 348.151 297.639 348.215 297.353 348.342C296.207 348.852 295.694 350.185 296.203 351.331L306.813 375.198C307.323 376.344 308.657 376.857 309.803 376.348C310.949 375.838 311.462 374.505 310.953 373.359L300.343 349.492C299.961 348.632 299.115 348.129 298.233 348.146ZM182.922 355.455C182.197 355.504 181.511 355.905 181.119 356.584L175.625 366.099C174.998 367.185 175.367 368.565 176.454 369.192C177.541 369.819 178.92 369.45 179.548 368.363L185.042 358.848C185.669 357.762 185.3 356.383 184.213 355.755C183.806 355.52 183.357 355.425 182.922 355.455V355.455ZM317.078 355.455C316.644 355.423 316.196 355.52 315.788 355.755C314.702 356.383 314.332 357.762 314.959 358.849L320.453 368.363C321.081 369.45 322.46 369.819 323.547 369.192C324.634 368.565 325.003 367.185 324.376 366.099L318.882 356.584C318.489 355.905 317.803 355.506 317.078 355.455V355.455ZM225.318 355.796C224.263 355.786 223.317 356.517 223.089 357.591L217.661 383.14C217.4 384.367 218.178 385.565 219.405 385.825C220.633 386.086 221.831 385.308 222.091 384.081L227.52 358.532C227.781 357.305 227.002 356.107 225.775 355.846C225.622 355.814 225.469 355.798 225.318 355.798L225.318 355.796ZM274.602 355.812C274.451 355.814 274.299 355.829 274.146 355.861C272.918 356.121 272.139 357.317 272.399 358.544L277.809 384.098C278.069 385.325 279.267 386.104 280.494 385.844C281.722 385.584 282.501 384.387 282.241 383.16L276.83 357.608C276.602 356.534 275.657 355.804 274.602 355.812L274.602 355.812ZM250 358.39C248.745 358.39 247.735 359.399 247.735 360.654V386.773C247.735 388.027 248.745 389.037 250 389.037C251.255 389.037 252.265 388.027 252.265 386.773V360.654C252.265 359.399 251.255 358.39 250 358.39ZM208.428 366.829C207.548 366.904 206.759 367.492 206.468 368.387L203.072 378.836C202.684 380.029 203.332 381.302 204.525 381.69C205.718 382.078 206.991 381.429 207.379 380.236L210.776 369.788C211.164 368.595 210.515 367.322 209.322 366.934C209.024 366.837 208.721 366.805 208.428 366.83V366.829ZM291.555 366.835C291.261 366.808 290.959 366.84 290.66 366.939C289.467 367.327 288.818 368.599 289.206 369.792L292.602 380.242C292.989 381.435 294.262 382.082 295.456 381.695C296.649 381.307 297.298 380.035 296.91 378.842L293.513 368.393C293.222 367.498 292.434 366.91 291.555 366.835V366.835ZM235.784 372.655C234.734 372.756 233.869 373.58 233.754 374.672L232.606 385.599C232.474 386.846 233.373 387.956 234.621 388.087C235.869 388.218 236.979 387.319 237.111 386.072L238.259 375.146C238.39 373.898 237.491 372.788 236.244 372.656C236.088 372.64 235.934 372.64 235.784 372.655L235.784 372.655ZM264.125 372.665C263.975 372.649 263.82 372.649 263.664 372.667C262.416 372.797 261.517 373.907 261.647 375.154L262.789 386.082C262.919 387.33 264.028 388.229 265.276 388.099C266.524 387.968 267.424 386.859 267.294 385.611L266.153 374.684C266.039 373.593 265.175 372.767 264.125 372.665L264.125 372.665Z" fill="#F4F2F3"/>
<g opacity="0.409" filter="url(#filter1_f_108_284)">
<path d="M356.15 151.248L232.242 223.228L153.899 346.545L268.509 261.667L356.15 151.248Z" fill="black"/>
</g>
<path d="M267.758 260.416L232.242 223.228L358.23 138.488L267.758 260.416Z" fill="#FF5150"/>
<path d="M267.758 260.416L232.242 223.228L141.77 345.156L267.758 260.416Z" fill="#F1F1F1"/>
<path opacity="0.243" d="M141.77 345.156L267.758 260.416L358.23 138.488L141.77 345.156Z" fill="black"/>
<defs>
<filter id="filter0_f_108_284" x="85.2714" y="96.9328" width="329.457" height="317.376" filterUnits="userSpaceOnUse" color-interpolation-filters="sRGB">
<feFlood flood-opacity="0" result="BackgroundImageFix"/>
<feBlend mode="normal" in="SourceGraphic" in2="BackgroundImageFix" result="shape"/>
<feGaussianBlur stdDeviation="1.18446" result="effect1_foregroundBlur_108_284"/>
</filter>
<filter id="filter1_f_108_284" x="153.226" y="150.574" width="203.598" height="196.644" filterUnits="userSpaceOnUse" color-interpolation-filters="sRGB">
<feFlood flood-opacity="0" result="BackgroundImageFix"/>
<feBlend mode="normal" in="SourceGraphic" in2="BackgroundImageFix" result="shape"/>
<feGaussianBlur stdDeviation="0.336663" result="effect1_foregroundBlur_108_284"/>
</filter>
<linearGradient id="paint0_linear_108_284" x1="250" y1="410.34" x2="250" y2="73.304" gradientUnits="userSpaceOnUse">
<stop stop-color="#BDBDBD"/>
<stop offset="1" stop-color="white"/>
</linearGradient>
<radialGradient id="paint1_radial_108_284" cx="0" cy="0" r="1" gradientUnits="userSpaceOnUse" gradientTransform="translate(250.707 219.177) scale(168.543 168.519)">
<stop stop-color="#06C2E7"/>
<stop offset="0.25" stop-color="#0DB8EC"/>
<stop offset="0.5" stop-color="#12AEF1"/>
<stop offset="0.75" stop-color="#1F86F9"/>
<stop offset="1" stop-color="#107DDD"/>
</radialGradient>
</defs>
</svg>
