<svg width="500" height="500" viewBox="0 0 500 500" fill="none" xmlns="http://www.w3.org/2000/svg">
<rect width="500" height="500" fill="#840010"/>
<path d="M119.307 104.004C103.666 104.004 91 116.698 91 132.341V394.041C91 395.034 91.0569 396.034 91.1522 397C101.671 393.076 112.838 388.787 124.631 384.07C206.72 351.263 273.832 323.37 273.893 291.875C273.893 290.866 273.823 289.848 273.68 288.83C269.435 257.735 195.215 248.095 195.318 233.844C195.327 233.087 195.541 232.296 195.996 231.504C204.912 215.87 240.227 216.618 253.233 215.513C266.25 214.382 296.799 214.616 298.276 205.299C298.319 205.012 298.346 204.726 298.346 204.438C298.381 195.782 277.338 192.388 277.338 192.388C277.338 192.388 302.873 196.208 302.804 206.153C302.804 206.64 302.744 207.144 302.608 207.657C299.858 218.342 277.39 220.351 262.531 221.081C248.479 221.786 227.08 223.386 227.007 230.259C226.998 230.659 227.068 231.077 227.211 231.503C230.565 241.551 308.996 246.389 359.176 272.463C388.052 287.453 402.413 312.632 409 338.645V132.337C409 116.694 396.325 104 380.7 104H119.307V104.004Z" fill="white"/>
</svg>
